<svg width="620" height="580" viewBox="0 0 620 580" fill="none" xmlns="http://www.w3.org/2000/svg">
<rect width="620" height="580" fill="#F5F5F5"/>
<g clip-path="url(#clip0_0_1)">
<path fill-rule="evenodd" clip-rule="evenodd" d="M0 0H620V580H0V0Z" fill="#537845"/>
<path fill-rule="evenodd" clip-rule="evenodd" d="M218.571 243.57C218.571 265.267 199.383 282.856 175.714 282.856C152.045 282.856 132.857 265.267 132.857 243.57C132.857 221.873 152.045 204.284 175.714 204.284C199.383 204.284 218.571 221.873 218.571 243.57Z" fill="white"/>
<path fill-rule="evenodd" clip-rule="evenodd" d="M270 244.284C270 265.981 250.812 283.57 227.143 283.57C203.474 283.57 184.286 265.981 184.286 244.284C184.286 222.587 203.474 204.998 227.143 204.998C250.812 204.998 270 222.587 270 244.284Z" fill="white"/>
<path fill-rule="evenodd" clip-rule="evenodd" d="M321.711 245.356C321.711 267.053 302.523 284.642 278.854 284.642C255.185 284.642 235.997 267.053 235.997 245.356C235.997 223.659 255.185 206.07 278.854 206.07C302.523 206.07 321.711 223.659 321.711 245.356Z" fill="white"/>
<path fill-rule="evenodd" clip-rule="evenodd" d="M373.141 246.07C373.141 267.767 353.953 285.356 330.284 285.356C306.615 285.356 287.427 267.767 287.427 246.07C287.427 224.373 306.615 206.784 330.284 206.784C353.953 206.784 373.141 224.373 373.141 246.07Z" fill="white"/>
<path fill-rule="evenodd" clip-rule="evenodd" d="M421.431 246.213C421.431 267.91 402.243 285.499 378.574 285.499C354.905 285.499 335.717 267.91 335.717 246.213C335.717 224.516 354.905 206.927 378.574 206.927C402.243 206.927 421.431 224.516 421.431 246.213Z" fill="white"/>
<path fill-rule="evenodd" clip-rule="evenodd" d="M472.861 246.927C472.861 268.624 453.673 286.213 430.004 286.213C406.335 286.213 387.147 268.624 387.147 246.927C387.147 225.23 406.335 207.641 430.004 207.641C453.673 207.641 472.861 225.23 472.861 246.927Z" fill="white"/>
<path fill-rule="evenodd" clip-rule="evenodd" d="M302.871 120C280.301 120 261.775 133.394 260.121 150.375C199.965 163.427 156.161 202.422 155.711 248.563H452.871C452.415 201.682 407.177 162.191 345.531 149.782C343.506 133.085 325.179 120.001 302.875 120.001L302.871 120Z" fill="white"/>
<path fill-rule="evenodd" clip-rule="evenodd" d="M179.081 297.08L231.965 451.82L372.035 452.918L422.06 298.178L179.08 297.08L179.081 297.08Z" fill="white" stroke="black" stroke-width="0.8767"/>
</g>
<defs>
<clipPath id="clip0_0_1">
<rect width="620" height="580" fill="white"/>
</clipPath>
</defs>
</svg>
