<?xml version='1.0' encoding='utf-8'?>
<svg xmlns="http://www.w3.org/2000/svg" width="600" height="600" viewBox="0 0 158.75 158.75" version="1.1" id="svg2127"> <defs id="defs2121"> <filter height="1.3174641" y="-0.15873207" width="1.1048743" x="-0.052437158" id="filter3794"> <feGaussianBlur id="feGaussianBlur3796" stdDeviation="5.2898216"/> </filter> <filter height="1.4896947" y="-0.24484733" width="1.3961058" x="-0.19805292" id="filter3858"> <feGaussianBlur id="feGaussianBlur3860" stdDeviation="9.7576734"/> </filter> <filter id="filter3785"> <feGaussianBlur id="feGaussianBlur3787" stdDeviation="4.1211438"/> </filter> <filter id="filter3872"> <feGaussianBlur id="feGaussianBlur3874" stdDeviation="2.8677107"/> </filter> <filter height="1.5114574" y="-0.2557287" width="1.0931967" x="-0.046598374" id="filter3882"> <feGaussianBlur id="feGaussianBlur3884" stdDeviation="2.3330019"/> </filter> <filter id="filter3890"> <feGaussianBlur id="feGaussianBlur3892" stdDeviation="1.1815842"/> </filter> <filter id="filter3898"> <feGaussianBlur id="feGaussianBlur3900" stdDeviation="4.8697684"/> </filter> </defs> <metadata id="metadata2124"> </metadata> <g id="layer1" transform="translate(0,-138.24998)"> <g id="layer1-0" transform="matrix(0.26458333,0,0,0.26458333,-35.932926,67.019754)"> <path style="fill:#4d4d4d;fill-opacity:1;stroke:none" d="m 235.42999,599.68252 c 0,0 -81.23929,14.3139 -83.40068,47.64901 -3.5197,54.28434 164.78915,73.17523 222.35161,73.17523 57.56246,0 225.87131,-18.89089 222.35161,-73.17523 -2.16139,-33.33511 -83.40068,-47.64901 -83.40068,-47.64901 -81.77445,-14.97132 -199.28712,-15.90269 -277.90186,0 z" id="path3840"/> <path id="path3010" d="m 238.90107,599.00075 c 0,0 -79.20988,14.09549 -81.31728,46.92194 -3.43178,53.45605 160.67262,72.05869 216.79713,72.05869 56.12451,0 220.22891,-18.60264 216.79713,-72.05869 -2.1074,-32.82645 -81.31728,-46.92194 -81.31728,-46.92194 -79.73167,-14.7429 -194.3088,-15.66005 -270.9597,0 z" style="fill:#e6e6e6;stroke:none"/> <path id="path3848" d="m 233.34524,659.41284 c 4.59711,6.12949 13.52506,9.48446 19.19289,15.15229 3.37545,3.37545 5.97949,12.4314 11.11168,14.14214 7.79873,2.59957 80.01567,16.05563 83.84266,14.14213 7.85359,-3.92679 -22.11091,-51.40534 -27.27412,-56.56854 -7.01432,-7.01433 -17.43397,-11.37306 -24.24366,-18.18275 -10.88031,-10.88031 -25.71935,-15.38506 -36.36549,-20.70812 -7.76128,7.70356 -38.34782,35.91104 -26.26396,52.02285 z" style="fill:#ffffff;stroke:none;filter:url(#filter3858)"/> <path id="path3019" d="m 329.88572,678.08036 c 10.1267,35.89828 60.94805,29.29442 92.42895,29.29442 16.97083,0 36.89031,2.18209 52.52794,-3.03046 24.54312,-8.18104 54.92704,-17.8355 76.26651,-33.84011 13.11338,-9.83503 35.64117,-32.90304 7.07107,-42.4264 -9.87969,-3.29323 -64.60423,33.81734 -76.77159,39.90102 -5.64935,2.82468 -16.43595,-11.50097 -20.70813,-13.63706 -5.36294,-2.68147 -15.9564,-0.50507 -22.22335,-0.50507 z" style="fill:#878787;fill-opacity:1;stroke:none;filter:url(#filter3794)"/> <path id="path3876" d="m 314.40998,669.51437 c 13.56145,28.40238 130.27921,29.97397 119.45053,0 z" style="fill:#333333;fill-opacity:1;stroke:none;filter:url(#filter3882)"/> <path style="fill:#4d4d4d;fill-opacity:1;stroke:none" d="m 314.40998,669.51437 c 9.24532,27.21532 112.31278,24.47016 119.45053,0 z" id="path3798"/> <path id="path3008" d="m 315.42013,669.51437 c 9.08895,22.9631 110.4132,20.64685 117.43023,0 z" style="fill:#999999;fill-opacity:1;stroke:none"/> <path id="path3819" d="m 516.71847,497.52648 c 8.96181,68.66619 -21.09238,149.62071 -83.1187,173.44939 -24.8827,9.55921 -92.3849,10.81828 -119.14587,0 -61.6095,-24.90602 -92.08539,-104.7832 -83.12357,-173.44939 26.71917,-35.97578 237.88606,-30.88801 285.38814,0 z" style="fill:#4d4d4d;fill-opacity:1;stroke:none"/> <path style="fill:#cccccc;stroke:none" d="m 516.21884,497.28336 c 8.93043,68.18385 -21.01853,148.56971 -82.82765,172.23101 -24.79557,9.49206 -92.06141,10.74229 -118.72867,0 -61.39377,-24.73107 -91.76294,-104.04716 -82.83251,-172.23101 26.63739,-46.18891 237.06972,-45.45686 284.38883,0 z" id="path3000"/> <path style="fill:#ffffff;stroke:none" d="m 237.38585,499.80874 c 47.18161,23.18935 208.62142,34.97918 272.74118,0 16.85625,68.63576 -275.5578,62.13045 -272.74118,0 z" id="path3862"/> <path id="path3002" d="m 237.38585,499.80874 c 49.8977,-51.03656 242.43661,-29.7995 272.74118,0 6.71911,64.61515 -270.04128,54.42611 -272.74118,0 z" style="fill:#808080;stroke:none"/> <path style="fill:#483131;fill-opacity:1;stroke:none" d="m 365.71191,482.07139 c -72.71307,1.94753 -103.70208,17.01513 -124.82265,27.27538 30.18176,43.01384 246.08392,50.30797 267.625,1.03125 -39.33457,-20.44048 -90.74965,-29.7008 -142.80235,-28.30663 z" id="path3823"/> <path id="path3014" d="m 364.70176,484.59677 c -72.71307,1.94753 -96.63101,16.00498 -123.8125,24.75 30.18176,43.01384 246.08392,50.30797 267.625,1.03125 -36.80919,-16.90495 -91.7598,-27.17542 -143.8125,-25.78125 z" style="fill:#845b36;fill-opacity:1;stroke:none"/> <path transform="matrix(-1,0,0,1,799.41304,28.284271)" id="path3805" d="m 285.84375,512.71875 c 5.67102,55.30528 34.84421,108.95049 83.375,128.5 26.66726,10.74229 93.92318,9.49206 118.71875,0 22.60533,-8.6536 40.94858,-24.88733 54.6875,-45.34375 -69.84504,50.59323 -203.81605,42.66445 -256.78125,-83.15625 z" style="fill:#999999;fill-opacity:1;stroke:none;filter:url(#filter3872)"/> <path id="path3842" d="m 425.84161,665.64645 c -144.57812,38.98404 -190.85108,-60.81303 -195,-152.14286 17.83119,122.18056 102.41322,159.01913 195,152.14286 z" style="fill:#ffffff;stroke:none;filter:url(#filter3898)"/> <path style="fill:#4d4d4d;fill-opacity:1;stroke:none" d="m 231.83001,497.28336 c -33.3401,-24.58726 -51.47982,-0.59668 -56.08179,12.17067 -9.92859,27.54514 14.81511,78.17124 81.84068,112.07809 4.72626,-2.98135 -3.63639,-19.66365 -13.13199,-26.26397 -58.82131,-24.70007 -62.38135,-94.78816 -44.96647,-96.85862 16.5993,-1.9735 30.04755,16.98852 32.33957,40.29008 3.32013,-2.14564 6.26512,-33.26451 0,-41.41625 z" id="path3844"/> <path id="path2996" d="m 231.83001,497.28336 c -32.83502,-20.04157 -49.45951,0.41347 -54.06148,13.18082 -9.92859,27.54514 15.82526,77.16109 79.82037,111.06794 1.6958,-0.45597 -2.12116,-13.60273 -13.13199,-26.26397 -60.33654,-39.85236 -59.35089,-89.23232 -41.93601,-91.30278 16.5993,-1.9735 19.44095,14.46314 29.30911,34.73424 3.05605,-1.96959 1.93585,-23.47562 0,-41.41625 z" style="fill:#999999;stroke:none"/> <path id="path3023" d="m 181.29551,618.22177 c -12.86339,7.08902 -22.98366,16.23718 -23.71875,27.6875 -3.43178,53.45605 160.68799,72.0625 216.8125,72.0625 52.10301,0 197.24166,-16.02736 215.03125,-61.09375 -29.76259,42.22323 -163.56514,60.1097 -259.59375,50.53125 -105.47686,-10.52086 -194.17,-38.98601 -148.53125,-89.1875 z" style="fill:#ffffff;stroke:none"/> <path id="path3838" d="m 295.53275,507.51116 c 11.22188,0.46098 22.00898,1.89403 33.2719,1.89403 6.80749,0 14.1701,-1.90103 20.70813,-3.53554 10.3579,-2.58947 36.46521,-1.51522 47.47717,-1.51522 11.62645,0 -7.356,6.10162 -10.6066,6.56599 -19.88886,2.84126 -40.68322,-1.31968 -60.10408,3.53553 -2.97001,0.7425 -15.18426,3.43962 -13.63706,8.08122 2.55754,7.67263 24.25762,4.04061 30.30458,4.04061 39.47985,0 82.46079,9.27723 118.18784,-8.5863 4.38225,-2.19112 16.70188,-1.58393 19.1929,-6.56599 2.57899,-5.15797 -21.58592,-0.24037 -23.73858,-4.54568 -1.88055,-3.7611 8.83014,-3.08248 6.81109,-5.10153 -3.96472,-3.96472 -24.41273,-4.3787 -30.0446,-5.50508 -29.96447,-5.99289 -77.64623,-10.22964 -108.5914,-4.04061 -7.21912,1.44383 -59.6346,9.16257 -63.13453,16.16245 -3.12058,6.24114 14.15644,6.06091 17.67767,6.06091 3.48692,0 13.38939,0.49533 15.15228,-3.03046 0.94127,-1.88253 -8.98906,-1.39818 -8.58629,-1.95717 1.81982,-2.52566 7.33056,-2.05284 9.65958,-1.95716 z" style="fill:#674a30;fill-opacity:1;stroke:none"/> <path id="path3827" d="m 243.10801,508.59677 c -0.74177,0.24752 -1.47315,0.51012 -2.21875,0.75 30.18176,43.01384 246.08392,50.30797 267.625,1.03125 -0.0505,-0.0232 -0.10572,-0.0393 -0.15625,-0.0625 -0.084,0.036 -0.16464,0.0583 -0.25,0.0937 -68.00897,40.45686 -210.52256,27.55927 -265.15625,-1.5 0.0549,-0.10333 0.10119,-0.20942 0.15625,-0.3125 z" style="fill:#674a30;fill-opacity:1;stroke:none"/> <path id="path3832" d="m 397.7135,493.37802 c -15.58997,-0.31024 -30.97826,0.45832 -45.125,1.71875 -37.72464,3.36115 -66.6875,10.34375 -66.6875,10.34375 a 2.0002,2.0002 0 1 0 0.9375,3.875 c 0,0 28.67641,-6.88498 66.09375,-10.21875 37.18081,-3.3127 82.93395,-2.96762 117.375,10.9375 -2.0913,0.81427 -6.01593,1.76505 -11.4375,2.65625 -11.85515,1.94874 -30.00224,3.72148 -49.5,5.09375 -19.49776,1.37227 -40.3753,2.36079 -57.75,2.71875 -16.44295,0.33877 -29.40139,0.0119 -35.125,-0.84375 0.73552,-0.22421 1.31158,-0.41919 2.25,-0.65625 6.84089,-1.72811 18.637,-3.66654 32.15625,-5.40625 27.0385,-3.47942 61.19515,-6.16238 77.28125,-5.21875 a 2.0039024,2.0039024 0 1 0 0.25,-4 c -16.84443,-0.98812 -50.83211,1.74991 -78.03125,5.25 -13.59957,1.75004 -25.42182,3.68037 -32.625,5.5 -1.80079,0.45491 -3.31041,0.91522 -4.53125,1.375 -1.22084,0.45978 -2.12965,0.7802 -2.96875,1.65625 -0.41955,0.43802 -0.90058,1.23596 -0.78125,2.1875 0.11933,0.95154 0.72028,1.56085 1.21875,1.90625 0.99694,0.69081 2.0366,0.9584 3.5625,1.25 6.17839,1.18071 19.97995,1.35967 37.4375,1 17.45755,-0.35967 38.3722,-1.34172 57.9375,-2.71875 19.5653,-1.37703 37.76119,-3.13374 49.875,-5.125 6.05691,-0.99563 10.48417,-1.99225 13.21875,-3.25 0.68364,-0.31444 1.2755,-0.64084 1.8125,-1.125 0.537,-0.48416 1.13309,-1.24976 1.125,-2.28125 -0.008,-1.03149 -0.6126,-1.85906 -1.1875,-2.34375 -0.5749,-0.48469 -1.23218,-0.80981 -2,-1.125 -22.27741,-9.14492 -48.79796,-12.63919 -74.78125,-13.15625 z" style="color:#000000;font-style:normal;font-variant:normal;font-weight:normal;font-stretch:normal;font-size:medium;line-height:normal;font-family:Sans;-inkscape-font-specification:Sans;text-indent:0;text-align:start;text-decoration:none;text-decoration-line:none;letter-spacing:normal;word-spacing:normal;text-transform:none;writing-mode:lr-tb;direction:ltr;baseline-shift:baseline;text-anchor:start;display:inline;overflow:visible;visibility:visible;fill:#ca9666;fill-opacity:1;stroke:none;stroke-width:4;marker:none;enable-background:accumulate"/> <path id="path3846" d="m 193.77597,561.13218 c -15.42994,-15.84395 -18.83098,-37.5998 -12.44317,-52.55737 6.31182,-14.77963 22.18099,-22.93021 45.44644,-10.78638 -20.28804,-7.1095 -35.26331,-0.33511 -40.90408,14.31211 -5.18162,13.45497 -2.31919,33.88792 7.90081,49.03164 z" style="fill:#ffffff;stroke:none;filter:url(#filter3890)"/> <path id="path3791" d="m 288.47506,372.97983 c -16.69692,59.13164 18.66282,66.00774 0,112.12693 7.49014,-39.30835 -26.88335,-65.30104 0,-112.12693 z" style="opacity:0.11111109;fill:#674a30;fill-opacity:1;stroke:none"/> <path style="opacity:0.11111109;fill:#674a30;fill-opacity:1;stroke:none" d="m 331.18501,344.55126 c -21.5897,76.45929 24.13169,85.35033 0,144.98407 9.68502,-50.82708 -34.76112,-84.43655 0,-144.98407 z" id="path3795"/> <path id="path3797" d="m 373.49458,323.4084 c -23.72317,94.54032 26.51635,105.53391 0,179.26979 10.64208,-62.84663 -38.19617,-104.40404 0,-179.26979 z" style="opacity:0.11111109;fill:#674a30;fill-opacity:1;stroke:none"/> <path style="opacity:0.11111109;fill:#674a30;fill-opacity:1;stroke:none" d="m 456.47506,372.97983 c -16.69692,59.13164 18.66282,66.00774 0,112.12693 7.49014,-39.30835 -26.88335,-65.30104 0,-112.12693 z" id="path3799"/> <path id="path3801" d="m 415.18501,344.55126 c -21.5897,76.45929 24.13169,85.35033 0,144.98407 9.68502,-50.82708 -34.76112,-84.43655 0,-144.98407 z" style="opacity:0.11111109;fill:#674a30;fill-opacity:1;stroke:none"/> </g> <g transform="translate(-340.16693,-26.979521)" id="g979"> <g id="g2323" transform="matrix(1.6979733,0,0,1.6979733,-466.92593,-196.3275)"> <path style="fill:#f9e4b2;fill-opacity:1;stroke:none;stroke-width:0.66499996;stroke-linecap:butt;stroke-linejoin:miter;stroke-miterlimit:4;stroke-dasharray:none;stroke-opacity:1" d="m 524.09261,285.66003 c 0.96799,5.15961 7.3411,11.41338 14.06975,13.21261 7.46491,1.99611 10.50172,-0.0778 14.37823,-0.86227 0.63577,-0.12866 1.83096,-0.0775 2.60345,-0.33025 3.75045,-1.22729 8.20176,-4.2878 10.04551,-10.01146 0.79474,-2.46717 -0.18177,-7.77392 -0.18177,-7.77392 0,0 -1.0144,-6.15309 -3.14043,-8.28536 -4.58632,-4.59977 -11.82186,-7.63986 -18.27453,-7.24968 -9.48766,0.57371 -21.84276,8.81397 -19.50021,21.30033 z" id="path54"/> <path style="fill:#f7d78d;fill-opacity:1;stroke:none;stroke-width:0.065;stroke-linecap:butt;stroke-linejoin:miter;stroke-miterlimit:4;stroke-dasharray:none;stroke-opacity:1" d="m 548.67092,278.29113 1.20272,-0.13364 2.40543,1.67044 0.3675,-0.73499 -1.16931,-1.60362 -0.33408,-1.5368 -1.5368,-0.33408 -1.03567,-1.43658 1.26953,-0.56794 0.20045,-1.77066 -0.73499,-0.50113 1.1693,-0.33409 -0.0668,-1.10249 1.20272,-0.7684 0.7684,-0.63476 0.45813,0.57462 1.06306,-0.0236 0.23621,-1.01584 -2.29148,-1.29929 -1.63002,-0.0236 -1.74814,0.0472 -0.63784,-0.3071 -1.96463,-0.0905 0.23385,1.23611 0.46773,0.13364 1.00224,1.77064 -0.40089,1.80409 c 0,0 -2.11218,0.80465 -2.8247,1.62444 -0.42024,0.48351 -0.71662,1.78324 -0.71662,1.78324 0,0 0.44973,1.04735 0.92154,1.27819 0.57876,0.28316 1.93169,-0.0698 1.93169,-0.0698 z" id="path866"/> <path style="fill:#f7d78d;fill-opacity:1;stroke:none;stroke-width:0.1;stroke-linecap:butt;stroke-linejoin:miter;stroke-miterlimit:4;stroke-dasharray:none;stroke-opacity:1" d="m 537.8601,273.89621 -0.0472,1.03942 c 0,0 0.98813,0.55105 1.37015,0.2835 0.62575,-0.43826 0.95299,-1.82469 0.33073,-2.26788 -0.40449,-0.28809 -1.32292,0.68509 -1.32292,0.68509 z" id="path868"/> <path style="fill:#dc9d11;fill-opacity:1;stroke:none;stroke-width:0.065;stroke-linecap:butt;stroke-linejoin:miter;stroke-miterlimit:4;stroke-dasharray:none;stroke-opacity:1" d="m 553.38076,279.80207 c -0.37446,-0.19476 -1.02015,0.27897 -1.06307,0.66145 -0.0497,0.44282 0.55192,0.95256 0.94495,0.82684 0.8003,-0.66567 0.2845,-0.55635 0.11812,-1.48829 z" id="path870"/> <path style="fill:#dc9d11;fill-opacity:1;stroke:none;stroke-width:0.26458332px;stroke-linecap:butt;stroke-linejoin:miter;stroke-opacity:1" d="m 544.93535,272.40793 0.54335,0.67326 -0.25988,0.77957 0.53155,-0.0945 0.25985,-0.42524 0.68509,0.40161 1.87539,0.43921 1.26952,-0.56793 -0.34552,-0.95795 0.14174,-0.41341 -0.33073,-0.23625 -0.40161,0.27168 -0.77957,-0.1772 -0.5906,-0.21259 -0.36639,-0.57943 -2.20855,0.80387 z" id="path872"/> <path style="fill:#f5db9e;fill-opacity:1;stroke:none;stroke-width:0.26458332px;stroke-linecap:butt;stroke-linejoin:miter;stroke-opacity:1" d="m 563.79874,290.62164 c 0,0 -2.71098,2.5247 -4.44935,3.22665 -1.96408,0.7931 -4.25631,0.87016 -6.41748,0.97834 -1.75207,0.0877 -3.5689,-0.2704 -5.25588,-0.26965 -1.98662,8.9e-4 -3.83554,0.20372 -5.75267,0.31691 -0.53317,0.0315 -1.53366,0.37545 -2.2437,0.42009 -1.56004,0.0981 -2.01762,-0.53505 -2.86882,-0.098 -0.25003,0.12837 -0.13675,0.46568 -0.46772,0.70156 -1.41635,1.00943 -4.87768,-0.3675 -4.87768,-0.3675 0,0 1.77916,1.65169 4.83676,2.72568 2.03406,0.71447 3.64066,1.09076 5.10767,1.27452 0.73819,0.0925 1.46599,0.0863 2.14475,0.15067 3.01212,0.28571 6.16447,-0.98627 8.0085,-1.48706 0.57029,-0.15487 1.41752,-0.19154 1.41752,-0.19154 0,0 1.74392,-0.19702 2.57045,-0.47229 2.66669,-0.88814 5.16539,-2.83254 6.24642,-4.12701 0.73211,-0.87666 2.00123,-2.78133 2.00123,-2.78133 z" id="path874"/> <path style="fill:#f7d78d;fill-opacity:1;stroke:none;stroke-width:0.26458332px;stroke-linecap:butt;stroke-linejoin:miter;stroke-opacity:1" d="m 534.40541,268.46897 -0.7684,2.17157 0.70159,0.13364 0.20045,0.56793 0.4009,-0.56793 1.00227,-0.3007 1.46997,-1.70383 0.3007,0.3675 -1.40317,1.36975 1.20269,0.23387 0.73501,0.0334 0.4009,-1.57022 -0.66818,-0.20045 -0.53454,-1.70384 -0.93543,0.50113 z" id="path876"/> <path style="fill:#f7d78d;fill-opacity:1;stroke:none;stroke-width:0.26458332px;stroke-linecap:butt;stroke-linejoin:miter;stroke-opacity:1" d="m 542.22305,267.66715 -1.33635,-0.26725 -0.36748,1.83748 0.30067,0.33409 -0.73499,0.56794 0.20045,0.56795 2.57247,0.0668 -0.0334,0.86862 -1.57021,0.16705 -0.53454,-0.30068 -0.73499,1.13589 0.63477,0.23387 0.0668,-0.46773 0.0668,-0.50113 0.73499,0.83522 0.56795,-0.53454 1.23612,0.13364 0.0668,-0.50113 -0.23386,-0.80181 0.56795,0.73499 0.33408,-0.33409 -0.0334,-0.7684 -1.06908,-0.63476 -0.43432,-0.90204 1.06908,-0.46772 0.86863,-0.46772 0.7684,-0.26727 -0.93544,-0.73499 -0.56795,-0.26727 -0.46772,0.63476 z" id="path878"/> <path style="fill:#f7dc9a;fill-opacity:1;stroke:none;stroke-width:0.26458332px;stroke-linecap:butt;stroke-linejoin:miter;stroke-opacity:1" d="m 538.84877,284.47174 0.10022,2.10474 -0.7684,-0.0334 -1.26952,1.13589 -0.4009,-1.40317 -0.53454,-0.36748 1.1693,-1.10249 0.43432,0.60135 z" id="path880"/> <path style="fill:#f7dc9a;fill-opacity:1;stroke:none;stroke-width:0.26458332px;stroke-linecap:butt;stroke-linejoin:miter;stroke-opacity:1" d="m 530.01711,285.09375 1.60639,-1.51191 -0.51972,-0.42521 0.47247,-1.79541 -0.94494,0.51972 -0.75594,-0.47247 -0.61423,0.37799 -0.47246,1.22841 0.42523,1.18118 0.37796,-0.47247 z" id="path882"/> <path style="fill:#f7dc9a;fill-opacity:1;stroke:none;stroke-width:0.26458332px;stroke-linecap:butt;stroke-linejoin:miter;stroke-opacity:1" d="m 527.98548,281.21948 -1.08667,0.99219 0.14174,2.03163 1.18118,0.23625 -0.37799,-1.55917 0.37799,-1.08667 z" id="path884"/> <path style="fill:#f7dc9a;fill-opacity:1;stroke:none;stroke-width:0.26458332px;stroke-linecap:butt;stroke-linejoin:miter;stroke-opacity:1" d="m 535.11978,277.77045 -0.56697,1.74816 0.80322,0.47247 0.66146,-0.85045 0.85042,0.56694 v -1.41739 z" id="path886"/> <path style="fill:#f7dc9a;fill-opacity:1;stroke:none;stroke-width:0.26458332px;stroke-linecap:butt;stroke-linejoin:miter;stroke-opacity:1" d="m 536.30096,274.8884 -0.75596,0.99219 0.42524,0.94493 0.28347,-0.8977 z" id="path888"/> <path style="fill:#f7dc9a;fill-opacity:1;stroke:none;stroke-width:0.26458332px;stroke-linecap:butt;stroke-linejoin:miter;stroke-opacity:1" d="m 533.06453,275.45535 -0.25985,0.8032 -0.51972,0.80319 0.75597,0.18899 0.6142,-0.49609 0.63783,-1.13393 -0.6142,0.0236 -0.16537,0.25985 z" id="path890"/> <path style="fill:#f7dc9a;fill-opacity:1;stroke:none;stroke-width:0.26458332px;stroke-linecap:butt;stroke-linejoin:miter;stroke-opacity:1" d="m 527.69026,277.58956 -0.36748,1.57019 -0.56796,0.73499 1.20272,-0.0668 v 0.53454 l -1.60361,1.20272 -0.0668,0.96885 -1.06907,-0.0334 0.30067,-1.40316 0.56796,0.30067 -0.46771,-1.60361 0.70157,-2.07135 0.7016,0.43432 z" id="path892"/> <path style="fill:#f7d78d;fill-opacity:1;stroke:none;stroke-width:0.26458332px;stroke-linecap:butt;stroke-linejoin:miter;stroke-opacity:1" d="m 531.03113,270.57373 0.26728,1.23611 -1.03566,0.36751 -0.66818,0.10022 0.56793,-0.80182 z" id="path894"/> <path style="fill:#f7dc9a;fill-opacity:1;stroke:none;stroke-width:0.26458332px;stroke-linecap:butt;stroke-linejoin:miter;stroke-opacity:1" d="m 529.09342,273.1462 0.96885,-0.26728 0.20048,0.56795 -0.66818,1.06908 -0.70159,-0.33409 z" id="path896"/> <path style="fill:#f7d78d;fill-opacity:1;stroke:none;stroke-width:0.26458332px;stroke-linecap:butt;stroke-linejoin:miter;stroke-opacity:1" d="m 533.40314,271.44234 0.20048,0.70159 -0.66818,0.60135 -0.36751,0.60137 1.63703,-0.13364 0.86863,0.60137 0.86863,-0.7016 -0.36751,-1.36975 -1.03566,-0.40092 z" id="path898"/> <path style="fill:#dc9d11;fill-opacity:1;stroke:none;stroke-width:0.26458332px;stroke-linecap:butt;stroke-linejoin:miter;stroke-opacity:1" d="m 558.92739,269.77191 0.63476,1.00227 1.97112,0.73499 c 0,0 0.10642,-1.44236 -0.46773,-1.83748 -0.5929,-0.40802 -2.13815,0.10022 -2.13815,0.10022 z" id="path900"/> <path style="fill:#f7dc9a;fill-opacity:1;stroke:none;stroke-width:0.26458332px;stroke-linecap:butt;stroke-linejoin:miter;stroke-opacity:1" d="m 550.0026,285.68433 0.77957,-0.96856 1.08669,0.25987 -0.42524,0.63783 -0.37795,-0.11814 z" id="path902"/> <path style="fill:#dc9d11;fill-opacity:1;stroke:none;stroke-width:0.26458332px;stroke-linecap:butt;stroke-linejoin:miter;stroke-opacity:1" d="m 536.27631,268.5692 1.16929,-1.26955 2.32802,-1.52993 1.96075,0.14174 -1.48828,0.54335 0.37798,0.54332 -1.55916,0.16536 -0.35436,0.63783 -1.46465,0.4961 -0.63783,0.61423 z" id="path904"/> <path style="fill:#f7d78d;fill-opacity:1;stroke:none;stroke-width:0.26458332px;stroke-linecap:butt;stroke-linejoin:miter;stroke-opacity:1" d="m 542.6793,265.01375 0.99219,0.75597 0.51972,-0.0709 0.77957,0.11811 0.2835,-0.23622 0.40158,0.23622 -0.47246,0.51972 1.2048,-0.3071 -0.21262,-0.59058 -0.49609,0.0236 -0.25985,-0.42524 -0.5906,0.18899 -0.18899,-0.21262 z" id="path906"/> <path style="fill:#f7d78d;fill-opacity:1;stroke:none;stroke-width:0.26458332px;stroke-linecap:butt;stroke-linejoin:miter;stroke-opacity:1" d="m 546.3882,264.89564 0.61421,0.68509 0.5906,0.44884 1.03942,0.21262 0.14173,-0.44884 -0.6142,-0.16537 0.11811,-0.56697 -0.92131,-0.11811 z" id="path908"/> <path style="fill:#f7d78d;fill-opacity:1;stroke:none;stroke-width:0.065;stroke-linecap:butt;stroke-linejoin:miter;stroke-miterlimit:4;stroke-dasharray:none;stroke-opacity:1" d="m 554.88495,268.86987 0.23384,0.7684 -0.30067,0.23387 2.43885,2.30521 0.4009,0.56793 0.53453,-0.13362 0.76841,1.26953 -0.53454,-1.93771 -0.63476,-1.03568 -0.36751,-1.00224 -1.33636,-0.50115 z" id="path910"/> <path style="fill:#f7d78d;fill-opacity:1;stroke:none;stroke-width:0.065;stroke-linecap:butt;stroke-linejoin:miter;stroke-miterlimit:4;stroke-dasharray:none;stroke-opacity:1" d="m 552.59644,270.60713 0.91874,0.18375 1.1526,-0.13364 -1.31963,-0.96885 -0.43432,0.0334 -0.7684,-0.3842 -0.45101,0.53454 -0.73501,0.4009 -0.13361,0.86862 0.31736,0.33409 0.18376,-0.63476 0.90204,0.11692 z" id="path912"/> <path style="fill:#f7dc9a;fill-opacity:1;stroke:none;stroke-width:0.065;stroke-linecap:butt;stroke-linejoin:miter;stroke-miterlimit:4;stroke-dasharray:none;stroke-opacity:1" d="m 562.99552,280.8179 -0.2126,0.21259 v 0.42524 l -0.47246,0.28347 -0.42524,-0.16536 -0.16536,0.40161 -0.89768,0.66146 -0.14177,1.84264 0.42524,-0.33073 0.28348,-1.13395 1.03944,-0.14174 0.18899,-0.47247 0.56695,-0.23622 0.47247,-0.51972 -0.0945,-0.80319 z" id="path914"/> <path style="fill:#f7dc9a;fill-opacity:1;stroke:none;stroke-width:0.065;stroke-linecap:butt;stroke-linejoin:miter;stroke-miterlimit:4;stroke-dasharray:none;stroke-opacity:1" d="m 560.73145,279.92816 -0.4677,0.63476 -0.60137,0.26728 -0.10023,0.90202 0.60137,-0.0334 0.50112,-0.46773 0.7016,-0.46773 v -0.8018 z" id="path916"/> <path style="fill:#f7dc9a;fill-opacity:1;stroke:none;stroke-width:0.065;stroke-linecap:butt;stroke-linejoin:miter;stroke-miterlimit:4;stroke-dasharray:none;stroke-opacity:1" d="m 559.59374,274.27417 0.21262,0.54335 0.77957,0.18899 0.33073,0.47247 0.99219,0.37798 -0.0236,0.6142 -0.14174,0.75595 -0.3071,0.0473 0.11811,0.47247 -0.21262,0.47246 -0.56695,-0.44884 -0.63783,-0.21261 -0.70871,0.51972 -0.68509,-0.37796 h -0.35435 l -0.4961,0.3071 v 0.21259 l 1.03944,0.0709 0.28348,0.44883 -0.37796,0.4961 -0.49609,0.23624 -0.2835,0.35436 -0.33073,0.35436 -1.7245,-0.16537 0.66145,-0.75596 1.06305,0.11811 0.47246,-0.54333 -1.29929,-0.16536 -0.75594,0.0236 -0.85045,0.89768 -0.11811,-1.08667 -0.51972,-0.4961 0.37799,-0.5906 1.06304,0.0709 0.56697,-0.14174 -0.40161,-0.70871 0.70872,-0.11811 0.44884,0.23622 0.0235,-0.21259 -0.0235,-0.40161 0.94493,-0.0473 0.63786,0.16537 0.37795,-0.189 0.0236,-0.51969 h 0.35436 l -0.18899,-0.44887 -0.28348,-0.21259 z" id="path918"/> <path style="fill:#f7d78d;fill-opacity:1;stroke:none;stroke-width:0.065;stroke-linecap:butt;stroke-linejoin:miter;stroke-miterlimit:4;stroke-dasharray:none;stroke-opacity:1" d="m 561.03477,273.09299 0.33073,0.7796 0.56697,0.63783 0.33073,0.63783 0.0473,0.33073 -1.0867,-0.40161 -1.08667,-0.94494 -0.35436,-0.37798 -0.56697,-0.77957 0.11809,-0.73232 -0.37797,-0.66146 -0.44885,-1.1103 1.03943,0.77957 1.11031,0.11812 0.33073,0.77958 z" id="path920"/> <path style="fill:#f7d78d;fill-opacity:1;stroke:none;stroke-width:0.26458332px;stroke-linecap:butt;stroke-linejoin:miter;stroke-opacity:1" d="m 553.52251,274.17969 1.1103,0.59057 0.35435,0.66146 0.37799,0.8032 0.66145,-0.85043 -0.18899,-0.63785 0.4961,0.23624 0.99218,-0.66145 0.25985,0.85045 0.18899,0.23622 0.89771,-0.25985 -0.11814,-0.70871 -0.56695,-0.92131 -0.82682,-0.63783 -0.42524,-0.51972 -0.75594,-0.59061 -0.75597,-0.66145 -1.25203,0.0709 -0.73234,0.37798 -0.35859,-0.33229 -0.91874,-0.0167 -0.0334,0.33409 0.0334,0.38418 h -0.41759 l -0.58468,0.66818 -0.41759,0.95215 0.60134,0.81852 0.45104,0.63476 0.56793,-0.43431 0.26728,0.23386 0.16703,-0.30067 0.40092,0.15033 0.26726,0.56796 0.3675,-0.6849 z" id="path922"/> <path style="fill:#f7dc9a;fill-opacity:1;stroke:none;stroke-width:0.26458332px;stroke-linecap:butt;stroke-linejoin:miter;stroke-opacity:1" d="m 545.09619,277.52272 -0.23386,0.56796 0.13364,0.86863 -0.36748,1.36974 1.36974,0.4009 1.1693,0.83524 0.90205,-0.7016 -0.23387,-1.06907 -0.73498,-0.63477 0.16703,-1.13588 -0.66818,-0.53456 -1.10249,-0.8686 -2.00451,-0.26728 -0.50112,-2.53905 -1.13591,0.36748 -0.73499,0.33409 -0.26728,1.57019 -0.30067,0.13364 0.26728,1.30294 0.66818,0.53454 -0.46773,1.43658 0.96885,-0.10022 0.0334,-0.63476 1.30294,0.4677 0.80179,0.0668 0.50115,-0.60138 -0.23387,-0.96885 0.50112,-0.73498 z" id="path924"/> <path style="fill:#f7dc9a;fill-opacity:1;stroke:none;stroke-width:0.26458332px;stroke-linecap:butt;stroke-linejoin:miter;stroke-opacity:1" d="m 537.52937,280.84153 -0.0472,1.46465 1.18118,0.51972 -0.70871,1.32292 -0.70871,-0.56698 -0.89768,-0.33073 -0.75597,-1.03944 0.66146,-1.60639 z" id="path926"/> <path style="fill:#f7dc9a;fill-opacity:1;stroke:none;stroke-width:0.26458332px;stroke-linecap:butt;stroke-linejoin:miter;stroke-opacity:1" d="m 529.87537,276.35305 -0.85045,-0.37798 -0.42524,1.08667 -0.0945,1.22844 h 0.61421 l 0.2835,1.03944 0.56695,-1.27569 0.28347,-1.27566 z" id="path928"/> </g> </g> </g> </svg>