<svg width="2355" height="1584" viewBox="0 0 2355 1584" fill="none" xmlns="http://www.w3.org/2000/svg">
<rect x="192" y="212" width="2034" height="1216" fill="white"/>
<path d="M176.299 192.127C157.441 195.899 146.907 218.964 138.777 233.599C128.055 252.899 142.539 278.336 144.482 296.794C146.917 319.93 155.556 335.769 160.5 358.015C166.091 383.175 188.723 403.397 198.022 427.574C210.919 461.105 170.93 480.197 146.457 488.355C131.108 493.471 124.953 488.648 124.953 506.348C124.953 522.244 129.658 539.958 138.996 552.867C157.231 578.075 172.678 598.739 183.32 627.472C194.445 657.508 203.145 687.902 210.968 719.193C218.486 749.265 213.39 778.4 207.458 808.062C205.403 818.333 191.128 839.639 184.198 847.559C175.093 857.964 177.544 862.244 176.079 875.426C172.252 909.875 99.3522 937.909 127.147 978.338C150.39 1012.15 191.707 1028.62 223.256 1053.16C250.208 1074.12 243.473 1118.38 218.868 1138.3C193.452 1158.88 163.696 1165.8 164.45 1205.01C165.013 1234.31 208.494 1291.52 239.494 1298.04C254.485 1301.2 193.488 1330.25 192.098 1333.59C187.755 1344.01 191.682 1366.28 192.098 1377.92C192.862 1399.33 287.658 1395.45 304.664 1386.69C340.351 1368.31 385.393 1369.82 425.13 1365.41C467.554 1360.7 481.734 1413.47 509.829 1437.82C547.39 1470.37 591.037 1392.77 613.399 1373.09C665.974 1326.82 714.669 1386.81 760.855 1413.9C807.49 1441.26 881.225 1483.56 934.642 1451.21C975.208 1426.64 1002.34 1367.97 1056.21 1369.14C1082.14 1369.7 1097.48 1392.6 1114.13 1408.64C1136.35 1430.03 1170.93 1430.28 1199.71 1426.63C1226.83 1423.19 1261.77 1416.79 1282.22 1396.35C1299.95 1378.61 1316.78 1361.24 1343.66 1361.24C1387.65 1361.24 1413.74 1386.86 1452.49 1402.71C1498.81 1421.66 1529.92 1391.61 1568.57 1372.87C1589.58 1362.68 1604.34 1348.21 1628.03 1343.47C1645.52 1339.97 1665.58 1340.29 1683.33 1341.71C1702.7 1343.26 1719.1 1350.65 1737.31 1356.41C1759.19 1363.34 1780.98 1357.5 1802.7 1362.12C1823.09 1366.46 1835.79 1377.8 1857.99 1377.04C1871.45 1376.57 1885.05 1369.45 1899.25 1369.14C1933.18 1368.4 1965.72 1376.8 1994.92 1391.96C2009.03 1399.28 2038.03 1418.02 2054.6 1411.71C2058.45 1410.24 2063.17 1401.64 2066.45 1398.98C2074.7 1392.3 2084.34 1392.02 2094.1 1388.89C2131.85 1376.78 2159.94 1353.58 2202.06 1361.24C2217.92 1364.12 2234.09 1370.43 2234.09 1349.17C2234.09 1327.07 2231.5 1307.23 2224.22 1286.2C2214.58 1258.33 2198.64 1229.47 2168.49 1218.83C2156.17 1214.48 2131.42 1210.89 2121.75 1202.59C2108.89 1191.57 2127.13 1162.53 2133.38 1154.1C2145.12 1138.28 2155.11 1122.52 2165.63 1105.83C2175.64 1089.96 2191.83 1079.71 2198.55 1061.94C2211.11 1028.68 2203.04 982.575 2187.58 952.226C2156.89 891.982 2129.17 848.32 2120.43 779.317C2113.21 722.274 2081 638.306 2145.66 598.947C2164.85 587.268 2202.5 582.623 2202.5 553.306C2202.5 528.537 2180.68 512.247 2165.41 494.719C2149.12 476.009 2134.2 456.9 2121.97 435.254C2107.55 409.754 2100.68 382.589 2092.78 354.943C2082.6 319.315 2113.21 280.599 2131.4 253.567C2141.81 238.1 2150.31 220.734 2155.98 203.099C2158.26 196.002 2160.55 179.43 2168.71 177.206C2182.26 173.509 2188.85 187.633 2177.04 193.883C2159.09 203.387 2148.17 207.926 2127.45 207.926C2070.23 207.926 1980.2 110.453 1936.33 174.573C1925.45 190.482 1915.83 210.562 1906.05 227.675C1898.21 241.398 1888.63 255.519 1880.38 268.488C1869.04 286.298 1796.2 196.97 1775.27 206.39C1737.61 223.336 1702.09 252.123 1662.27 263.222C1603.3 279.655 1580.15 228.96 1536.75 200.027C1501.34 176.421 1482.25 157.551 1439.33 176.328C1416.79 186.19 1394.4 197.495 1372.62 208.804C1334.15 228.777 1288.07 218.593 1247.11 225.48C1233.02 227.849 1223.6 235.149 1212 242.596C1199.53 250.601 1185.67 251.819 1172.28 257.297C1154.37 264.624 1137 274.632 1116.99 274.632C1090.77 274.632 1072.29 237.821 1061.25 217.581C1050.78 198.387 1025.64 193.316 1005.3 190.372C987.163 187.747 922.539 164.768 912.699 184.447C888.106 233.633 837.079 208.991 801.449 189.933C764.404 170.118 723.718 159.3 686.688 139.903C668.707 130.485 646.678 120.576 625.687 121.033C602.458 121.538 588.186 141.741 574.78 157.897C559.134 176.753 534.775 189.278 514.218 202.221C489.361 217.872 449.238 204.809 421.18 207.926C409.678 209.204 400.701 223.199 386.511 223.725C379.829 223.972 372.904 221.536 369.834 227.675" stroke="white" stroke-width="241" stroke-linecap="round"/>
</svg>
