<svg width="400" height="400" viewBox="0 0 400 400" fill="none" xmlns="http://www.w3.org/2000/svg">
<g opacity="0.3" clip-path="url(#clip0_1_2)">
<path d="M400 0H0V400H400V0Z" fill="#E5D9BB"/>
<path d="M225.5 202.3C223.6 200.7 220.7 201.9 220.7 204.2C220.7 205.3 220.2 205.4 219.2 205.1C214.8 204 210.4 203 205.9 201.9C204.9 201.7 204.5 201.2 204.4 200.1L203.2 191.1C203.1 190.7 203.1 190.2 203.1 189.8C203.1 189.1 203.7 188.6 204.5 188.7C205 188.8 205.4 188.9 205.8 189C206.9 189.4 207.7 189.3 208.4 188.3C209 187.5 208.2 185.2 207.2 182.9C205.9 180 204.2 177.7 203.8 177.4C203.5 177.1 202.2 176 200.9 176.3C200.3 176.4 199.8 176.9 199.1 177.9C198.8 178.4 198.3 178.7 198 179.2C197 180.8 195.9 182.5 195.2 184.2C194.2 186.7 195.5 188.3 198.2 188.2C198.9 188.2 199.6 188 200.3 188.1C200.7 188.2 201.3 188.7 201.4 189C201.9 192.6 202.2 196.2 202.6 199.8C202.7 200.7 202.4 201 201.5 200.9C197.7 200.2 193.8 199.6 190 199C189.2 198.9 188.9 198.4 188.6 197.6C187.9 195 186.9 192.5 186 190.1C185.8 189.7 185 189.2 184.5 189.3C184.1 189.3 183.7 190.1 183.4 190.6C183.3 190.9 183.4 191.3 183.5 191.6C184 193.4 184.5 195.1 185 196.9V197.4C185 197.7 184.7 197.9 184.4 197.9C184.2 197.9 184 197.9 183.9 197.8C183.6 197.6 183.4 197.1 183.3 196.7L180.3 188.6C180.2 188.3 179.6 188 179.3 188.1C179 188.2 178.7 188.7 178.7 189.1C178.6 189.5 178.8 189.9 178.9 190.3C179.4 192.1 180 193.9 180.6 195.7C180.7 195.9 180.7 196.1 180.7 196.3C180.7 196.7 180.6 197 180.5 197.1C180.4 197.2 179.6 196.3 178.8 195.2C178.3 194.5 177.9 193.8 177.4 193.1C176.6 191.9 176 190.7 175.1 189.6C174.9 189.4 174.6 189.3 174.3 189.3C173.8 189.2 173.3 189.6 173.3 190.1C173.2 190.4 173.2 190.7 173.3 191C174.2 192.8 175.1 194.5 176.2 196.1C176.8 197 176.7 197.6 176 198.4C174.9 199.6 173.7 200.7 172.7 202C172.5 202.2 172.5 202.5 172.5 202.8C172.5 203.3 172.9 203.7 173.3 203.7C173.6 203.7 173.9 203.7 174.1 203.6C174.7 203.3 175.1 202.8 175.5 202.3C176.3 201.4 177.1 200.5 177.9 199.7C178.5 199 180.2 199 180.9 199.9C181.1 200.2 180.8 201.1 180.4 201.6C179.4 202.9 178.1 204.1 177.1 205.5C176.9 205.8 176.9 206.1 176.8 206.5C176.8 207.1 177.2 207.5 177.8 207.4C178.2 207.3 178.6 207.2 178.8 207C180.2 205.4 181.5 203.6 182.6 201.9C183.1 201.1 183.5 200.7 184 200.7C185.1 200.7 185.4 201.8 185 202.3C184.7 202.6 184.4 202.9 184.2 203.2C183.2 204.4 182.1 205.5 181.2 206.7C181.1 206.9 181.1 207.1 181.1 207.4C181.1 207.8 181.5 208.1 181.9 208.1C182.2 208.1 182.4 208.1 182.7 208C183 207.9 183.3 207.5 183.6 207.2C184.9 205.7 186.2 204.1 187.6 202.7C188 202.2 188.8 201.7 189.3 201.8C193.5 202.4 197.8 203.2 202 204C202.5 204.1 203.2 204.9 203.3 205.5C204 210.7 204.6 215.8 205.2 221C205.2 221.3 204.9 221.9 204.6 221.9C201.9 222.3 200 224 198 225.5C197.3 226 196.5 226.7 197.3 227.7C198.1 228.6 198.7 227.7 199.3 227.2C200.9 226 202.4 224.8 204 223.7C204.4 223.4 205.3 222.8 205.6 223.8C205.9 224.6 206.2 225.5 204.9 226.1C203.1 227 201.4 228.2 199.7 229.4C199.5 229.5 199.4 229.8 199.3 230.1C199.2 230.5 199.4 230.9 199.9 230.9C200.2 230.9 200.5 230.9 200.7 230.7C201.8 230 202.8 229 203.9 228.2C204.2 228 204.5 227.9 204.8 227.8C205.3 227.6 205.6 228 205.5 228.6C205.4 229 205.3 229.4 205.2 229.7C205.1 230 204.7 230.2 204.5 230.4L201.8 233.1C201.3 233.6 200.6 234.3 201.4 234.9C201.7 235.1 202.7 234.7 203.1 234.3C203.9 233.7 204.4 232.8 205.1 232.1C206.2 230.8 207.2 230.7 208.5 231.9C209 232.4 209.4 232.9 209.8 233.5C210.5 234.6 211.2 235.7 212 236.8C212.2 237.1 212.9 237.4 213.2 237.2C213.5 237.1 213.7 236.4 213.7 236C213.7 235.6 213.4 235.1 213.1 234.7C211.9 233.2 210.7 231.8 209.6 230.3C209.4 230 209.2 229.8 209.1 229.5C208.8 229 208.8 228.6 208.9 228.5C209 228.4 209.4 228.6 209.8 228.9L210.4 229.5C211.3 230.4 212.1 231.3 213 232.1C213.6 232.6 214.4 233.1 214.9 232.3C215.1 231.9 214.9 230.8 214.5 230.5C213 229.2 211.4 228.1 209.7 227.1C209.1 226.7 208.6 226.2 208.4 225.6C208.1 224.5 209 224 209.5 224.4C209.8 224.7 210.1 224.9 210.4 225.2C212 226.6 213.5 228 215.2 229.3C215.4 229.5 215.7 229.5 216.1 229.5C216.6 229.5 217 229.1 217 228.6C217 228.2 216.9 227.9 216.8 227.8C214.3 225.8 211.8 223.9 209.1 222.2C208.2 221.6 207.6 221.2 207.5 220.1C206.7 215.4 206 210.7 205.2 206C205 204.9 205.5 204.7 206.4 204.9C210 205.8 213.6 206.6 217.2 207.5C220.4 208.4 220.5 207.6 220 211.6C219.8 213 219.7 214.5 219.8 215.9C219.9 217.4 221.1 218.4 222.3 217.9C223.7 217.4 225.1 216.7 226.4 215.9C227.7 215.2 228.9 214.2 230.3 213.5C232.1 212.5 232.4 211.4 231.5 209.5C230.1 206.4 227.8 204.4 225.5 202.3Z" fill="#B2A17A"/>
<path d="M199.5 89.7C198.7 89.5 197.9 89.6 197.1 89.5C195.3 89.4 192.9 90.4 191.2 90.8C189.2 91.2 187 91.7 185.3 92.9C185.2 93 184.9 93 184.7 93V92.2C184.3 90.2 184.4 89.9 185.9 89.6C186 89.6 186 89.5 186 89.5C188.3 88.5 190.5 87.3 193.1 86.8C194.7 86.5 196.3 86.4 197.9 86.4C199 86.4 201.1 86.8 202 85.9C203 84.9 205.6 82.2 205 80.7C204.6 79.6 203 79 202 78.5C200.5 77.8 198.3 76.1 196.6 77.2C192.6 79.8 189.3 83.6 185.6 86.5L184.1 87.7C183.5 87 183.3 86.3 183.1 85.6C183.3 85.2 183.5 84.9 183.8 84.6C185.5 82.4 187.2 80.2 189.1 78.3C190.8 76.6 192.9 75.3 194.6 73.6C195.5 72.7 194.5 68.9 194.6 67.6C194.7 65.9 193.2 66 192 66.3C190.3 66.7 188.6 67 186.9 67.3C185.8 67.5 185.3 67.9 185.1 69C184.2 73.5 182.9 77.9 182.2 82.4C182.1 82.7 182.1 83.2 181.5 83.3C180.6 82.2 179.4 81.7 178.1 81.2C177.2 80.8 177.3 80.8 177.4 79.7C177.7 77.4 178 75 178.5 72.7C178.9 70.9 180.5 68.4 180.3 66.6V65.5C179.4 64.6 177 61.7 175.7 61.7H175.5C175.5 61.8 175.5 61.9 175.4 61.9C173.7 62.1 170.3 65.2 171.1 67.1C171.7 68.5 171.9 70.3 172.4 71.8C173.3 74.5 175.6 78 174.7 81C174.5 81.9 172.5 82.6 171.7 82.8C170.8 83 171.1 83.4 170.5 82.3C169.2 80 168.2 77 167.3 74.5C166.5 72.2 164.9 71.5 163 70.3C161.9 69.6 159.4 67.4 158.1 68.5C158 68.6 157.9 68.7 157.8 68.7C157.5 68.9 157.7 72.1 157.7 72.5C157.7 73.7 158 75 159 75.9C161.2 76.3 163 78.7 164.4 80.3C165.8 81.9 167.5 83.6 168.7 85.4C169.5 86.7 169.3 88.2 167.6 87.3C165.8 86.4 164.4 84.7 162.8 83.5C160.7 81.8 158.6 80.2 156.5 78.5C156.1 78.2 155.7 78 155.3 78.1C152.8 78.1 150.1 77.9 147.8 79.3C147.5 79.5 147 80.3 147.1 80.6C147.8 82.5 148.8 85.2 150.8 86.1C152.3 86.7 154.5 86.8 156.1 87.1C159.6 87.8 163.1 88.6 166.4 90.1C166.9 90.3 167.4 90.7 167.7 91.1C167.8 92.2 167.3 93.2 167.5 94.2V94.4C167.3 94.5 167.3 94.8 166.9 94.6C164.3 93.4 161.9 92.1 159.4 90.9C157.8 90.2 155.7 89.6 154.5 88.4C153.3 87.2 151.1 88.6 149.8 89.1C148.3 89.6 144.1 90.6 145.5 92.8C146.7 94.6 149.1 95.2 150.8 96.3C151.5 96.8 152.3 97.2 153.3 97.1C157.4 96.8 161.7 96.8 165.9 96.9C166.5 96.9 167.2 97 167.5 97.6V99.4C167.5 100.3 161.1 101.8 160.3 101.9C158.1 102.3 155.9 102.6 153.7 103.2C152.9 103.5 152.2 103.8 151.7 104.2C151 104.7 150.5 105.5 150 106.5C149.2 107.9 148.2 109.6 148 111.2C147.9 111.8 148.2 112.5 148.7 112.5C150.4 112.6 152.1 113.1 153.8 113.1H154.1C154.8 113.2 155.5 113.1 155.9 112.7C159.3 110 162.4 107 165.7 104.4C166.2 104 166.7 103.5 167.2 103.1C168.2 102.4 169 103.7 168.4 104.6C167.8 105.6 167.1 106.6 166.4 107.5C165 109.4 163.4 111.2 161.7 112.9L159.3 115.3C159.1 115.6 158.8 115.9 158.7 116.2C158 118.5 158.6 121.5 157 123.5C156.6 123.9 156.9 124.6 157.5 124.8C159.7 125.3 164.1 123 164.8 120.9C166.1 116.7 168 112.7 168.7 108.2C168.8 107.7 168.9 107 169.5 106.7C170.6 107.8 171.4 108.9 173.1 109.2C174.3 109.4 173.1 112.4 172.9 113.1C172.1 115.7 171.8 118.4 170.8 121C170.4 122.1 170.3 123.2 170.1 124.3C169.8 125.6 171.9 131.9 173.7 130.9C175.2 130.1 176.9 127.3 177.5 125.7C178 124.5 177.7 122.9 177.5 121.6C176.4 120.8 176.2 117.1 176 115.9C175.8 114.2 175.3 111.6 175.7 109.9C176 108.8 177 108.7 177.9 108.2C178.7 107.8 179.7 106.8 180.7 106.9C181.4 107 182.3 115.3 182.4 116.1C182.6 117.8 182.4 119.7 183.3 121.2C183.8 122.1 185.9 122.7 186.8 123C188.1 123.6 189.7 124.1 191.1 123.9C191.4 123.5 191.6 123.2 191.6 122.7C191.5 120.7 192.3 116.2 190.3 114.9C187.3 112.9 185.3 109.9 183.3 106.9C182.9 106.3 182.4 105.6 182.2 105C182.2 105.1 184.3 105.9 184.5 106.1C185.3 106.6 186 107.1 186.7 107.6C188 108.6 189.3 109.6 190.5 110.7C191.5 111.6 192.1 112.4 193.5 112.6C195.1 112.9 196.6 113 198.2 113.5C199.5 113.9 202.3 115.7 203 113.3C203.3 112 201.6 109.5 201 108.3C199.1 104.3 195.6 103.9 191.8 102.8C189.5 102.2 186.6 102.1 184.5 101.1C183.7 100.7 183.9 100.9 183.7 100C183.6 99.4 183.7 98.6 183.8 98C184 96.9 184.4 95.4 185.8 96C188.6 97 191.9 97.4 194.8 98.1C195.5 98.3 196.2 98.4 196.9 98.6C199.2 99.3 201.5 97 203.3 95.9C204.5 95.2 206.7 94.5 205.6 92.7C205 91 201.3 90.2 199.5 89.7ZM181.5 97.4C181.6 97.9 181.3 98.4 181.2 98.9C181.1 99.4 180.9 99.8 180.7 100.3C180.4 101.1 179.7 101.6 179.2 102.3C178.8 102.9 178.2 103.3 177.7 103.9C177 104.6 176.2 104.9 175.3 105.2C175 105.3 174.2 104.8 174 104.5C173.4 103.5 173 102.3 172.6 101.2C172.4 100.7 172.4 100 172.4 99.4V95.7C172.4 94.9 172.5 94 172.4 93.2C172.3 92.1 172.6 91.1 172.6 90C172.6 89.6 172.8 89.2 172.8 88.8C172.8 88.4 173.1 88 173.2 87.6C173.3 87.2 173.5 86.9 173.6 86.5C173.9 85.7 174.6 85.2 175.1 84.7C175.3 84.5 175.6 84.5 175.9 84.4C177.1 84.2 178 84.8 178.9 85.5C180.1 86.4 180.7 87.8 181 89.3C181.3 90.5 181.6 91.8 181.4 93.1C181.3 94.1 181.6 95 181.6 96C181.7 96.4 181.4 96.8 181.5 97.4Z" fill="#B2A17A"/>
<path d="M107.2 132.2C106.7 131.8 106.9 131.4 106.9 131.1C106.9 130.7 107.2 130.2 106.6 129.9C106.5 129.9 106.5 129.6 106.5 129.5C106.7 129 106.2 128.5 106.7 128.1C106.8 128 106.7 127.8 106.5 127.7C106.4 127.7 106.4 127.5 106.4 127.5C106.9 127.2 106.5 126.9 106.3 126.8C105.8 126.6 105.6 126.1 105.2 125.8C104.8 125.5 104.3 125.3 103.9 125.1C103.8 125.1 103.8 124.9 103.7 124.7C104.1 124.8 104.5 124.9 104.8 125C104.8 124.4 104.2 124.7 104 124.4C103.7 123.9 103.3 123.8 102.9 123.6C102.3 123.2 101.4 123 101.2 122.1C101.2 122 101.1 121.9 101 121.9C100.2 121.4 99.5 120.9 98.9 120.2C98.9 120.1 99 119.9 99 119.8C98.3 119.2 97.7 118.5 96.9 117.9C95.8 117 95 115.9 93.8 115.1C93.7 115 93.7 114.8 93.6 114.7C94 114.9 94.3 115 94.7 115.1C94.2 114.4 93.6 113.9 93.1 113.4C92.6 112.8 91.7 112.6 91.4 111.7C91.7 111.8 91.9 111.8 92.2 111.9C92.2 111.7 92.2 111.4 92.1 111.2C92 111 91.8 110.9 91.7 110.7C91.6 110.5 91.3 110.3 91.3 110.2C91.3 109.1 90.5 108.7 89.8 108.2C89 107.6 88.1 107 87.3 106.4C86.6 105.9 86 105.4 86.1 104.4C86.2 104.3 86.4 104.2 86.6 104.1C86.5 103.9 86.4 103.8 86.3 103.6C86.2 102.9 85.9 102.2 85.3 101.7C85.1 101.5 85 101.1 84.9 100.8C84.9 100.7 84.9 100.4 84.8 100.4C84.3 100.2 84.4 99.8 84.3 99.4C83.9 98.6 83.8 97.8 83.7 97C83.7 96.8 83.6 96.7 83.4 96.6C83.3 96.6 83.3 96.3 83.4 96.3C83.5 96.2 83.6 96.2 83.8 96.1C83.3 95.1 83.3 95.1 83 95C81.8 94.6 81.4 93.5 81.2 92.5C81.1 92.2 81.1 92 80.9 91.9C80.8 91.8 80.6 91.7 80.5 91.5C79.9 90.2 79.2 88.9 78.6 87.7C78.5 87.4 78.4 87.2 78.4 86.9C78.4 86.7 78.6 86.6 78.8 86.7C78.9 86.7 79 86.9 79.2 87.1C77.5 83.4 77.7 84.1 75.9 83.6C75.9 83.8 75.8 84.1 75.8 84.3C75.6 84.2 75.4 84.2 75.3 84.2C75.3 83.9 75.4 83.6 75.3 83.4C75 83 75 82.5 75 82C75 80.8 75.9 73.6 74.8 73.2C74.7 73.2 74.6 73.3 74.6 73.3C74.3 74.4 74 75.4 73.9 76.6C73.8 78.4 73.6 80.3 73.5 82C72.8 82.5 72.2 83 71.6 83.4C71.5 83.4 71.5 83.5 71.5 83.6C71.3 84 71.1 84.4 71 84.8C70.5 86.6 69.8 88.3 69.6 90.2C69.5 90.9 69.3 91.6 69.2 92.3V93.3C69.3 93.6 69.6 93.6 69.8 93.7L70.7 94.6C70.8 94.7 70.9 94.9 70.9 95.1C70.8 96.1 71 97.2 70.8 98.2C70.7 99.1 71.2 99.6 71.5 100.2C72.1 100.4 72 100.8 72.1 101.3C72.2 102.1 72.3 102.1 73 102.7C73.4 103 73.6 103.3 73.6 103.8C73.6 104.5 73.7 105.3 73.9 106C74 106.3 74 106.5 74.3 106.8C74.8 107.2 74.9 108.1 75.6 108.5V108.7C75.8 109.3 75.6 110 76.4 110.4C76.6 110.5 76.6 110.8 76.7 111C76.8 111.2 76.9 111.5 77 111.6C77.7 111.9 77.5 112.5 77.6 113.1C77.6 113.8 77.7 114.6 78.3 115.1C78.6 115.2 79 115.3 79.3 115.4C79.8 115.6 80.2 115.9 80.1 116.5C80 117.2 80.4 117.7 80.8 118.1C81.3 118.6 81.7 119 81.7 119.8C81.7 119.9 81.8 120.1 81.9 120.2C82.5 120.3 82.8 120.8 83.2 121.1C83.7 121.4 84 121.7 84.1 122.2V122.4C84.9 122.6 85.1 123.7 86.1 123.6C86.4 124.2 86.9 124.8 87 125.4C87.1 126.2 87.7 126.7 87.9 127.4C88.4 127.5 88.8 127.8 89.2 127.7C89.7 127.6 90.1 127.9 90.5 128.1C91 128.3 91.5 128.7 91.6 129.2C91.6 129.6 91.8 129.9 92 130.2C92.5 131.2 93.1 132.1 93.6 133.1C94.1 134.1 95 134.5 96 134.8C96.8 135 97.6 135.1 98.1 135.7C98.4 136 98.8 136.3 99.1 136.5C100 137.1 100.9 137.5 101.9 136.8C102 136.7 102.2 136.7 102.4 136.7C103.2 136.7 104 136.7 104.8 136.9C105.7 137.1 106.5 137 107.1 136.4C106.9 135.9 106.9 135.9 107.2 135.5C106.4 135.1 106.3 134.2 105.9 133.7C106.2 133.3 106.4 133 106.6 132.7C106.7 132.2 106.8 132.2 107.2 132.2Z" fill="#B2A17A"/>
<path d="M340.8 200.1C341.2 198.9 341.5 197.8 341.7 196.6C341.9 195.8 341.9 194.9 342.4 194.2C342.5 194.1 342.4 193.8 342.5 193.6C342.5 193.4 342.6 193 342.7 192.9C343.2 192.7 343.4 192.3 343.5 191.9C343.8 190.9 344.5 190.3 345.3 189.7C345.6 189.5 345.9 189.2 346.2 189C346.8 188.6 347.3 187.9 347.3 187.3C347.3 186.6 347.7 186.2 347.8 185.6C347.9 185.1 348.3 184.7 348.3 184.1C348.3 183.5 348.7 183 348.9 182.4C349.1 182 349.5 181.7 349.7 181.4C350.7 179.8 351 178 351.3 176.3C351.7 174.4 351.9 172.4 352.7 170.6C352.8 170.4 352.7 170 352.8 169.8C353.2 168.6 352.7 167.4 352.7 166.3C352.6 165.2 352.2 164.5 351.1 164.1C350.6 164 350.4 163.6 350.4 163.2C350.3 162.7 350.4 162.3 350.4 161.8C350.4 160.8 350.5 159.7 350.6 158.7C350.7 157.1 350.2 152.5 348.7 151.9C348.2 154.7 349.8 157.8 348 160.5C347.3 160.6 346.6 160.7 346 161.2C345.2 160.9 345.1 161.8 344.6 162.1C344.3 162.3 344.1 162.8 343.8 163.1C343 163.9 342.2 164.8 341.5 165.6C340.3 167 340.3 166.8 340.8 168.3C340.8 168.4 340.9 168.5 340.9 168.6C340.2 169.6 340.2 170.9 339.1 171.7C338.3 173.4 337.5 175 336.8 176.7C336.7 176.9 336.8 177.4 336.7 177.5C336.2 177.7 336.2 178.1 336 178.4C335.7 179.1 335.3 179.8 334.5 180.2C333.7 180.6 333.6 180.9 333.7 181.9C333.8 182.6 334 183.3 333.1 183.8C332.9 183.9 332.7 184.3 332.8 184.5C333.1 185.5 332.3 185.7 331.7 186.1C330.2 187 329.3 188.1 328.7 189.8C328.6 190.1 328.4 190.4 328.2 190.7C328.1 190.9 327.9 191.1 327.8 191.3C327.6 191.7 327.4 192.2 327.4 192.7C327.4 193.1 326.9 193.4 326.6 193.8C326.5 193.9 326.6 194.2 326.5 194.4C326.4 195.1 326.2 195.7 326.1 196.4C325.3 196.7 325.4 197.6 325 198.1C325.3 198.8 324.7 199 324.3 199.3C324.2 199.4 324 199.5 323.9 199.7C323.1 200.7 322.7 202 321.5 202.7C321.3 202.8 321.2 203.3 321.2 203.6C321.1 204.4 320.9 205.1 320 205.5C319.6 205.6 319.2 205.9 319.3 206.5C319.3 206.7 319.1 207.1 318.7 207.3C317.7 207.9 317.4 209.1 316.5 209.7C316.9 210.4 316 210.4 316 210.8C315.9 211.5 315.2 211.4 314.8 211.8C314.6 212.1 314.1 212.1 313.7 212.3C312.9 212.7 312.6 213.2 312.8 214C312.9 214.5 312.8 214.9 312.5 215.1C311.9 215.5 311.8 216.4 310.9 216.5C310.8 216.5 310.7 216.9 310.5 217.2C310.8 217.1 310.9 217.1 311.1 217C311 217.4 311.1 218 310.9 218.1C310.3 218.5 310.2 219.2 309.9 219.8C309.7 220.2 310 220.9 309.3 221.1C309.2 221.6 309.3 222.2 308.9 222.6C308.6 223 308.5 223.6 308 223.9C307.8 224 307.8 224.5 307.7 224.8C308.3 224.9 308 225.4 308 225.6C307.9 226.5 308.4 227 309.1 227.4C309.3 227.5 309.5 227.7 309.7 227.9C310 227.7 310.4 227.5 310.7 227.5C311.2 227.5 311.4 227.2 311.7 227C312.2 226.6 312.2 226.6 313.1 226.9C313.2 226.9 313.3 227 313.4 227C314 226.7 314.8 226.6 315.3 226.1C315.7 225.7 316.1 225.6 316.6 225.4C317.1 225.6 317.5 225.8 317.9 226C318.3 225.9 318.7 225.8 318.9 225.6C319.3 225.2 319.5 224.8 319.8 224.3C320.5 223.4 321.1 222.3 322.2 221.9C323.2 221.5 323.6 220.8 324.1 220C324.8 219 325.5 218.2 326.7 217.8C327.3 217.6 327.8 217.4 328.3 217.2C328.7 216.7 329 216.2 329.4 215.9C330.4 215 331.2 214.1 331.8 212.9C332.4 211.6 333.2 210.4 333.9 209.1C333.9 209 334 208.9 334.1 208.9C334.6 208.6 334.8 208.2 334.7 207.7C334.7 207.5 334.8 207.1 334.9 207C335.5 206.7 335.8 205.9 336.2 205.9C336.7 206.1 337 206.4 337.2 206.3C338.8 205.8 339.6 204.6 339.9 203C340.3 202.2 340.4 201.1 340.8 200.1Z" fill="#B2A17A"/>
<path d="M334 76.9C328.4 75.9 321.7 80.8 317.4 83.8C314.7 85.7 307.4 88.9 309.5 92.9C311.9 97.7 320.5 90.9 323 89.7C327.7 87.5 328.8 84.7 333.2 89.5C337 93.7 339.6 100 337.2 105.5C335 110.7 328.8 111.3 323.7 111.3C319.1 111.3 319.1 103.6 323 102.1C326.8 100.7 331.8 109.2 333.2 102.1C334.3 96.4 326.5 95.3 322.5 96.4C311.3 99.4 311.1 107 315.7 116.7C317.7 120.8 323.2 120.7 326.9 120.1C332.8 119 337.9 118.2 343.8 117.7C356 116.7 345.8 94.6 343 88.6C341.3 85 338.6 77.7 334 76.9Z" fill="#B2A17A"/>
<path d="M138.4 235.4C137.3 235.2 136.2 235 135.1 235.1C133.3 235.2 131.4 235.3 129.7 235.4C129.1 234.8 128.6 234.2 128.1 233.7C128.1 233.7 128 233.6 127.9 233.6C127.5 233.5 127.1 233.3 126.6 233.2C124.8 233 123 232.4 121.1 232.5C120.4 232.5 119.7 232.4 119 232.3C118.7 232.3 118.4 232.3 118.1 232.4C117.8 232.5 117.9 232.9 117.8 233.1C117.6 233.5 117.3 233.8 117 234.1C116.9 234.2 116.7 234.3 116.5 234.3C115.5 234.3 114.4 234.6 113.4 234.6C112.5 234.6 112.1 235.2 111.5 235.5C111.4 236.1 110.9 236.1 110.5 236.2C109.7 236.4 109.7 236.5 109.2 237.2C109 237.6 108.7 237.8 108.2 237.9C107.5 238 106.7 238.2 106 238.5C105.7 238.6 105.5 238.6 105.3 239C104.9 239.6 104.1 239.7 103.8 240.5H103.6C103 240.7 102.3 240.7 102 241.5C101.9 241.7 101.6 241.8 101.5 241.9C101.3 242 101 242.1 101 242.3C100.7 243 100.2 243 99.6 243C98.9 243.1 98.2 243.2 97.7 243.9C97.6 244.2 97.6 244.6 97.5 244.9C97.3 245.4 97.1 245.8 96.5 245.8C95.8 245.8 95.3 246.2 95 246.7C94.6 247.2 94.2 247.7 93.4 247.8C93.3 247.8 93.1 248 93.1 248.1C93 248.7 92.6 249.1 92.4 249.5C92.2 250.1 91.9 250.4 91.4 250.5H91.2C91.1 251.3 90 251.7 90.2 252.6C89.6 253 89.1 253.6 88.6 253.7C87.8 253.9 87.4 254.5 86.7 254.8C86.6 255.3 86.4 255.7 86.5 256.1C86.6 256.6 86.4 257 86.2 257.4C86 257.9 85.7 258.5 85.2 258.6C84.8 258.7 84.5 258.9 84.2 259.1C83.3 259.7 82.4 260.4 81.5 261C80.5 261.6 80.3 262.6 80.2 263.6C80.1 264.4 80.1 265.2 79.5 265.8C79.2 266.1 79 266.5 78.8 266.9C78.3 267.8 78.1 268.8 78.9 269.7C79 269.8 79 270 79 270.2C79 271 79.2 271.8 79.1 272.6C79 273.5 79.2 274.3 79.9 274.9C80.4 274.6 80.4 274.6 80.8 274.9C81.1 274 82 273.8 82.4 273.4C82.8 273.6 83.2 273.8 83.5 273.9C83.5 274 83.5 274.2 83.6 274.6C83.9 274.1 84.3 274.2 84.7 274.2C85.1 274.1 85.6 274.4 85.9 273.8C85.9 273.7 86.2 273.6 86.3 273.7C86.8 273.9 87.2 273.3 87.7 273.7C87.8 273.8 88 273.7 88.1 273.5C88.1 273.4 88.3 273.4 88.3 273.4C88.6 273.8 88.9 273.5 89 273.2C89.1 272.7 89.6 272.4 89.9 272C90.1 271.6 90.3 271.1 90.5 270.6C90.5 270.5 90.7 270.5 90.9 270.3C90.8 270.7 90.8 271.1 90.7 271.4C91.3 271.3 91 270.8 91.2 270.6C91.6 270.3 91.7 269.8 91.8 269.4C92.1 268.7 92.2 267.9 93 267.5C93.1 267.5 93.2 267.4 93.2 267.3C93.6 266.4 94 265.7 94.7 265C94.8 265 95 265.1 95.2 265.1C95.8 264.3 96.3 263.6 96.8 262.8C97.5 261.6 98.6 260.7 99.2 259.4C99.3 259.3 99.5 259.2 99.6 259.1C99.5 259.5 99.4 259.9 99.3 260.2C99.9 259.7 100.3 259 100.8 258.4C101.3 257.8 101.5 256.9 102.3 256.5C102.3 256.8 102.2 257 102.2 257.3C102.4 257.3 102.7 257.3 102.9 257.2C103.1 257.1 103.2 256.9 103.3 256.7C103.5 256.5 103.6 256.3 103.8 256.3C104.9 256.2 105.2 255.3 105.6 254.6C106.1 253.7 106.6 252.8 107 251.9C107.4 251.1 107.9 250.5 108.9 250.5C109 250.6 109.1 250.8 109.3 250.9C109.5 250.8 109.6 250.6 109.8 250.6C110.5 250.4 111.1 250.1 111.5 249.4C111.6 249.2 112.1 249.1 112.3 248.9C112.4 248.8 112.7 248.8 112.7 248.7C112.8 248.2 113.3 248.3 113.6 248.1C114.3 247.7 115.1 247.4 115.9 247.2C116.1 247.1 116.2 247.1 116.3 246.9C116.3 246.8 116.6 246.8 116.6 246.8C116.7 246.9 116.7 247 116.8 247.1C117.7 246.5 117.8 246.5 117.8 246.2C118.1 244.9 119.1 244.4 120.1 244.1C120.4 244 120.6 244 120.7 243.7C120.8 243.5 120.9 243.4 121.1 243.3C122.3 242.5 123.5 241.7 124.7 241C124.9 240.9 125.2 240.8 125.5 240.7C125.7 240.7 125.8 240.8 125.8 241.1C125.8 241.2 125.7 241.3 125.5 241.5C129 239.3 128.2 239.6 128.5 237.8H127.8C127.8 237.6 127.9 237.4 127.9 237.3C128.2 237.3 128.5 237.3 128.7 237.2C129.1 236.9 129.5 236.8 130 236.8C131.2 236.7 138.5 236.7 138.7 235.6C138.5 235.5 138.4 235.4 138.4 235.4Z" fill="#B2A17A"/>
<path d="M316.5 44.3C316.1 44.2 315.5 44.3 315.1 44.5C313.3 45.2 311.6 45.9 309.9 46.6C309.6 46.7 309.3 46.8 309 46.8C308.5 46.9 308 46.8 307.9 46.7C307.8 46.5 308.1 46.2 308.5 46C308.7 45.9 309 45.7 309.2 45.6C310.3 45 311.4 44.5 312.4 43.9C313.1 43.5 313.8 42.9 313.2 42.2C312.9 41.9 311.8 41.8 311.4 42C309.8 43.1 308.2 44.2 306.7 45.5C306.2 46 305.5 46.2 304.9 46.2C303.8 46.2 303.5 45.1 304.1 44.8C304.4 44.6 304.8 44.4 305.1 44.2C306.9 43.1 308.7 42.1 310.4 40.9C310.6 40.8 310.7 40.5 310.8 40.1C310.9 39.6 310.7 39.1 310.2 39C309.8 38.9 309.5 38.8 309.3 39C306.7 40.8 304 42.6 301.6 44.7C300.8 45.4 300.2 45.8 299.1 45.7C294.4 45 289.7 44.4 285 43.7C283.9 43.5 283.8 43 284.3 42.2C286.2 39 288 35.8 290 32.6C291.8 29.8 291 29.5 294.7 31.1C296 31.7 297.4 32.2 298.7 32.6C300.1 33 301.4 32.1 301.4 30.9C301.3 29.4 301.1 27.9 300.8 26.4C300.5 24.9 300 23.5 299.6 22C299.2 20 298.2 19.3 296.1 19.7C293 20.2 290.3 21.7 287.7 23.3C285.6 24.6 285.9 27.8 288 28.5C289 28.8 289 29.4 288.5 30.2C286.1 34.1 283.8 38 281.5 41.9C281 42.8 280.4 43 279.3 42.8C276.3 42.2 273.3 41.8 270.4 41.3C270 41.2 269.5 41.1 269.1 41C268.4 40.8 268.1 40 268.5 39.4C268.7 39 268.9 38.6 269.2 38.2C269.9 37.3 270 36.5 269.3 35.5C268.7 34.7 266.2 34.7 263.8 35C260.7 35.4 257.9 36.3 257.5 36.6C257.1 36.8 255.7 37.7 255.6 39C255.6 39.6 255.9 40.2 256.6 41.2C256.9 41.7 257.2 42.2 257.5 42.6C258.8 44 260 45.6 261.4 46.8C263.5 48.5 265.4 47.8 266.1 45.2C266.3 44.5 266.3 43.8 266.7 43.2C266.9 42.8 267.5 42.4 267.9 42.5C271.5 43.1 275 43.9 278.6 44.6C279.5 44.8 279.7 45.2 279.3 46C277.5 49.5 275.8 52.9 274 56.4C273.6 57.2 273.1 57.3 272.2 57.3C269.5 57.2 266.9 57.4 264.2 57.6C263.7 57.6 263.1 58.3 262.9 58.8C262.8 59.2 263.4 59.8 263.8 60.2C264 60.4 264.5 60.4 264.8 60.4C266.6 60.5 268.5 60.5 270.3 60.6C270.5 60.6 270.6 60.7 270.8 60.7C271 60.8 271.2 61.1 271.1 61.4C271 61.6 271 61.7 270.8 61.8C270.5 62 270 62 269.6 62.1C266.7 62.3 263.9 62.4 261 62.6C260.7 62.6 260.2 63.1 260.2 63.4C260.2 63.7 260.6 64.1 260.9 64.3C261.2 64.5 261.7 64.5 262 64.5H267.6C267.8 64.5 268 64.5 268.2 64.6C268.5 64.7 268.8 64.9 268.9 65C269 65.1 267.9 65.6 266.6 66C265.8 66.2 265 66.5 264.2 66.7C262.9 67.1 261.5 67.3 260.2 67.8C260 67.9 259.8 68.2 259.7 68.5C259.5 69 259.7 69.5 260.1 69.7C260.4 69.8 260.7 70 261 69.9C262.9 69.6 264.9 69.2 266.8 68.7C267.9 68.4 268.4 68.7 268.9 69.6C269.7 71 270.4 72.5 271.4 73.8C271.5 74 271.8 74.1 272.1 74.2C272.5 74.3 273 74.1 273.2 73.7C273.3 73.4 273.4 73.1 273.3 72.9C273.2 72.3 272.8 71.7 272.5 71.1L270.7 68.1C270.2 67.3 270.8 65.7 271.8 65.3C272.1 65.2 272.9 65.8 273.3 66.2C274.3 67.6 275 69.1 276.1 70.5C276.3 70.8 276.6 70.9 277 71.1C277.6 71.3 278.1 71 278.1 70.4C278.1 70 278.2 69.6 278 69.4C276.9 67.6 275.6 65.9 274.2 64.2C273.6 63.4 273.3 63 273.4 62.5C273.7 61.5 274.8 61.4 275.2 62C275.4 62.4 275.6 62.7 275.8 63.1C276.6 64.4 277.4 65.7 278.3 67C278.4 67.2 278.7 67.3 278.9 67.3C279.3 67.4 279.7 67.1 279.8 66.7C279.9 66.4 279.9 66.2 279.9 65.9C279.9 65.5 279.6 65.2 279.4 64.8C278.4 63.1 277.2 61.4 276.3 59.6C276 59.1 275.7 58.2 276 57.7C277.9 53.9 279.8 50 281.9 46.3C282.2 45.8 283.2 45.4 283.7 45.5C288.8 46.3 293.9 47.3 299.1 48.3C299.4 48.4 299.8 48.9 299.8 49.1C299.3 51.8 300.4 54.1 301.3 56.5C301.6 57.3 302 58.3 303.2 57.8C304.3 57.3 303.6 56.5 303.3 55.8C302.7 53.9 302 52.1 301.4 50.2C301.3 49.7 300.9 48.7 302 48.7C302.8 48.7 303.8 48.6 304 50C304.3 52 305 54 305.6 55.9C305.7 56.1 305.9 56.3 306.2 56.5C306.6 56.8 307 56.6 307.1 56.2C307.2 55.9 307.3 55.6 307.2 55.4C306.8 54.1 306.2 52.9 305.8 51.6C305.7 51.3 305.7 50.9 305.7 50.6C305.7 50 306.1 49.8 306.7 50.2C307 50.4 307.4 50.6 307.7 50.9C307.9 51.1 308 51.5 308.2 51.8C308.8 52.9 309.4 54.1 310 55.2C310.4 55.8 310.8 56.7 311.7 56.1C312 55.9 311.9 54.8 311.6 54.3C311.2 53.4 310.6 52.6 310.1 51.7C309.2 50.2 309.4 49.3 310.9 48.4C311.5 48 312.2 47.8 312.8 47.6C314.1 47.2 315.3 46.9 316.6 46.5C316.9 46.4 317.4 45.8 317.4 45.5C317.4 44.8 316.9 44.4 316.5 44.3Z" fill="#B2A17A"/>
<path d="M120.6 32.5C118 30.6 112.6 24.7 109.4 27.9C105.7 31.7 114.8 37.6 116.7 39.7C120.2 43.4 123.2 43.6 120.1 49.3C117.4 54.2 112.2 58.7 106.3 58.2C100.6 57.8 98.1 52.1 96.5 47.3C95.1 42.9 102.4 40.4 105 43.7C107.6 46.8 101.1 54.3 108.3 53.3C114.1 52.5 112.5 44.7 110.3 41.3C103.9 31.7 96.6 33.9 88.9 41.3C85.6 44.5 87.5 49.7 89.3 53C92.2 58.2 94.6 62.8 97 68.3C101.9 79.5 119.5 62.8 124.3 58.2C127.1 55.5 133.1 50.6 132.4 46C131.6 40.4 124.8 35.6 120.6 32.5Z" fill="#B2A17A"/>
<path d="M179.3 280.8C176.7 280.3 171.5 278.9 169.3 281.1C166.5 283.8 166.6 289.5 166.5 293.1C166.5 295.3 165.3 300.7 168.4 301.1C172 301.7 171.7 294.2 172 292.4C172.7 288.9 171.6 287.2 176 286.7C179.8 286.3 184.4 287.4 186.5 290.9C188.5 294.2 186.3 297.9 184.3 300.7C182.4 303.2 178.1 300.2 178.9 297.4C179.6 294.7 186.3 295.3 182.9 291.7C180.2 288.8 176.4 292.7 175.5 295.4C172.7 302.8 176.8 306 184 307.3C187.1 307.9 189.2 304.8 190.4 302.4C192.2 298.7 193.7 295.6 195.9 292.1C200.1 284.8 183.8 281.6 179.3 280.8Z" fill="#B2A17A"/>
<path d="M278 338.5C276.3 336.7 273.2 337.6 273 339.8C272.9 340.9 272.3 340.9 271.4 340.6C267.1 339 262.9 337.5 258.6 335.9C257.6 335.6 257.3 335 257.3 334C257.3 331 257.1 328 257.1 325C257.1 324.6 257.1 324.1 257.2 323.7C257.3 323 258 322.5 258.7 322.8C259.1 322.9 259.6 323.1 260 323.3C261 323.8 261.9 323.8 262.7 322.9C263.4 322.1 262.9 319.8 262.1 317.4C261.1 314.4 259.7 311.9 259.4 311.5C259.1 311.2 258 309.9 256.6 310.1C256 310.2 255.5 310.6 254.6 311.5C254.2 311.9 253.7 312.2 253.4 312.7C252.2 314.2 250.9 315.7 250 317.3C248.7 319.7 249.8 321.4 252.5 321.6C253.2 321.6 253.9 321.6 254.6 321.8C255 321.9 255.6 322.5 255.6 322.8C255.6 326.4 255.6 330.1 255.5 333.7C255.5 334.6 255.1 334.9 254.3 334.6C250.6 333.5 246.8 332.4 243.1 331.4C242.3 331.2 242 330.7 241.9 329.8C241.5 327.2 240.8 324.6 240.1 322C240 321.5 239.2 321 238.7 321C238.3 321 237.8 321.7 237.5 322.1C237.3 322.3 237.4 322.8 237.4 323.1L238.3 328.5V329C238.2 329.3 238 329.4 237.7 329.4C237.5 329.4 237.3 329.3 237.2 329.2C236.9 328.9 236.8 328.5 236.7 328.1C236 325.3 235.4 322.5 234.6 319.7C234.5 319.4 233.9 319 233.6 319.1C233.3 319.1 233 319.6 232.8 320C232.7 320.3 232.8 320.8 232.8 321.2C233.1 323 233.5 324.9 233.8 326.7V327.3C233.8 327.7 233.7 328 233.5 328C233.3 328.1 232.7 327.1 232.1 325.9C231.7 325.2 231.3 324.4 231 323.7C230.4 322.5 229.9 321.1 229.1 320C229 319.8 228.7 319.7 228.3 319.6C227.8 319.5 227.3 319.8 227.2 320.3C227.1 320.6 227.1 320.9 227.1 321.2C227.8 323.1 228.5 324.9 229.4 326.6C229.9 327.6 229.7 328.2 228.9 328.8C227.6 329.8 226.4 330.8 225.2 332C225 332.2 225 332.5 224.9 332.8C224.8 333.3 225.2 333.7 225.6 333.7H226.4C227 333.5 227.5 333 228 332.6L230.7 330.2C231.4 329.6 233 329.8 233.7 330.8C233.9 331.1 233.4 332 233 332.4C231.8 333.6 230.4 334.7 229.3 335.9C229.1 336.1 229 336.5 228.9 336.9C228.8 337.5 229.2 337.9 229.8 337.9C230.2 337.9 230.6 337.8 230.8 337.6C232.4 336.1 233.8 334.6 235.2 332.9C235.8 332.2 236.2 331.8 236.7 331.8C237.8 331.9 238 333 237.5 333.5C237.2 333.8 236.9 334 236.6 334.3C235.5 335.3 234.3 336.3 233.2 337.4C233.1 337.6 233 337.8 233 338.1C233 338.5 233.3 338.9 233.7 338.9H234.5C234.8 338.8 235.2 338.5 235.4 338.2C236.9 336.9 238.3 335.4 239.9 334.2C240.4 333.8 241.2 333.4 241.7 333.5C245.8 334.6 249.9 335.9 254 337.2C254.5 337.4 255.1 338.3 255.1 338.8C255.2 344 255.2 349.2 255.2 354.4C255.2 354.7 254.8 355.2 254.5 355.2C251.8 355.3 249.7 356.7 247.5 358C246.8 358.4 245.9 359.1 246.6 360.1C247.3 361.1 248 360.2 248.6 359.9C250.3 358.9 252 357.9 253.7 357C254.2 356.8 255.1 356.2 255.3 357.3C255.5 358.1 255.7 359 254.4 359.5C252.5 360.2 250.7 361.2 248.9 362.2C248.7 362.3 248.5 362.6 248.4 362.9C248.2 363.3 248.4 363.7 248.9 363.8C249.2 363.8 249.5 363.8 249.7 363.7C250.9 363.1 252 362.3 253.2 361.6C253.5 361.4 253.8 361.3 254.2 361.3C254.8 361.2 255 361.6 254.8 362.2C254.7 362.6 254.5 362.9 254.3 363.3C254.2 363.6 253.8 363.7 253.5 363.9L250.5 366.3C249.9 366.8 249.2 367.4 249.9 368.1C250.1 368.3 251.2 368 251.7 367.7C252.5 367.1 253.2 366.4 254 365.7C255.3 364.5 256.2 364.5 257.4 365.9C257.9 366.4 258.2 367 258.5 367.7C259.1 368.9 259.6 370.1 260.3 371.2C260.5 371.5 261.1 371.9 261.4 371.8C261.7 371.7 262 371.1 262 370.7C262 370.3 261.8 369.7 261.6 369.3L258.6 364.5C258.4 364.2 258.3 363.9 258.2 363.6C258 363.1 258 362.6 258.1 362.5C258.2 362.4 258.6 362.6 258.9 363C259.1 363.2 259.3 363.4 259.5 363.7C260.3 364.7 261 365.6 261.8 366.6C262.3 367.2 263 367.8 263.7 367C264 366.7 263.9 365.6 263.5 365.2C262.2 363.8 260.7 362.4 259.2 361.2C258.6 360.7 258.2 360.2 258.1 359.5C257.9 358.4 258.9 358 259.3 358.4C259.6 358.7 259.8 359 260.1 359.3C261.5 360.8 262.9 362.5 264.4 363.9C264.6 364.1 264.9 364.1 265.2 364.2C265.7 364.2 266.1 363.9 266.2 363.4C266.2 363 266.2 362.7 266.1 362.5C263.8 360.3 261.6 358 259.1 356C258.3 355.3 257.7 354.8 257.7 353.7C257.5 348.9 257.3 344.2 257 339.4C256.9 338.3 257.4 338.1 258.4 338.5C261.9 339.8 265.4 341 268.9 342.4C272 343.6 272.1 342.9 271.2 346.8C270.9 348.2 270.6 349.6 270.5 351.1C270.4 352.6 271.5 353.7 272.7 353.4C274.2 353 275.6 352.5 277 351.9C278.4 351.3 279.7 350.5 281.1 349.9C283 349.1 283.4 348.1 282.7 346.1C282 343.1 280 340.8 278 338.5Z" fill="#B2A17A"/>
<path d="M110.9 196.5C110.5 196.3 109.9 196.3 109.5 196.4C107.6 196.7 105.8 197.1 104 197.4C103.7 197.5 103.4 197.5 103 197.5C102.5 197.5 102 197.4 102 197.2C102 197 102.3 196.8 102.8 196.6C103.1 196.5 103.3 196.4 103.6 196.3C104.8 195.9 106 195.6 107.1 195.2C107.8 195 108.6 194.5 108.2 193.6C108 193.2 106.9 192.9 106.5 193.1C104.7 193.8 102.9 194.7 101.2 195.7C100.6 196.1 99.9 196.2 99.3 196.1C98.2 195.9 98.2 194.8 98.8 194.5C99.2 194.3 99.5 194.2 99.9 194.1C101.9 193.4 103.9 192.7 105.8 191.8C106 191.7 106.2 191.4 106.4 191.1C106.6 190.7 106.4 190.1 106 189.9C105.7 189.7 105.4 189.6 105.1 189.7C102.2 191 99.3 192.3 96.5 193.8C95.6 194.3 94.9 194.6 93.9 194.3C89.4 192.7 84.9 191.2 80.4 189.7C79.4 189.3 79.4 188.8 80 188.1C82.5 185.3 84.9 182.5 87.4 179.8C89.7 177.4 89 177 92.3 179.2C93.5 180 94.7 180.8 96 181.4C97.3 182 98.8 181.4 99 180.2C99.2 178.7 99.2 177.2 99.2 175.6C99.2 174.1 98.9 172.6 98.9 171C98.9 168.9 98 168.1 95.9 168.1C92.7 168 89.9 169 87 170.1C84.7 171 84.4 174.2 86.4 175.2C87.3 175.7 87.2 176.2 86.5 176.9C83.5 180.3 80.4 183.7 77.5 187.1C76.8 187.9 76.2 188 75.2 187.6C72.4 186.5 69.5 185.5 66.7 184.5L65.5 183.9C64.8 183.5 64.7 182.8 65.2 182.2C65.5 181.8 65.8 181.5 66.1 181.2C67 180.4 67.3 179.7 66.7 178.6C66.3 177.7 63.9 177.3 61.4 177.1C58.3 176.9 55.4 177.3 55 177.5C54.6 177.6 53 178.2 52.7 179.5C52.6 180.1 52.8 180.7 53.2 181.8C53.4 182.3 53.6 182.9 53.9 183.4C54.9 185 55.8 186.8 57 188.3C58.7 190.4 60.8 190 61.9 187.6C62.2 187 62.4 186.3 62.8 185.7C63.1 185.4 63.8 185.1 64.1 185.2C67.5 186.5 70.8 187.9 74.2 189.2C75 189.5 75.2 190 74.6 190.7C72.2 193.8 69.8 196.9 67.5 199.9C67 200.6 66.5 200.6 65.6 200.4C63 199.8 60.4 199.5 57.7 199.2C57.2 199.1 56.4 199.7 56.2 200.2C56 200.6 56.5 201.3 56.8 201.8C57 202 57.4 202.1 57.7 202.2C59.5 202.6 61.3 203 63.1 203.4C63.2 203.4 63.4 203.5 63.5 203.6C63.7 203.8 63.8 204.1 63.6 204.3C63.5 204.5 63.4 204.6 63.3 204.7C62.9 204.8 62.5 204.8 62.1 204.7C59.3 204.3 56.4 203.9 53.6 203.6C53.3 203.6 52.7 204 52.7 204.3C52.6 204.6 53 205.1 53.3 205.3C53.6 205.5 54 205.6 54.4 205.7C56.2 206.1 58.1 206.4 59.9 206.8C60.1 206.8 60.3 206.9 60.5 207C60.8 207.1 61.1 207.4 61.1 207.5C61.1 207.7 60 207.9 58.6 208.1C57.8 208.2 57 208.3 56.1 208.3C54.7 208.4 53.3 208.4 51.9 208.7C51.7 208.7 51.4 209 51.2 209.3C50.9 209.7 51 210.3 51.4 210.6C51.7 210.8 51.9 211 52.2 211C54.2 211.1 56.1 211.1 58.1 210.9C59.2 210.8 59.7 211.2 60 212.2C60.5 213.7 61 215.3 61.6 216.8C61.7 217 61.9 217.2 62.2 217.4C62.6 217.6 63.1 217.5 63.3 217.1C63.4 216.8 63.6 216.6 63.6 216.3C63.6 215.7 63.3 215 63.1 214.4L61.9 211.1C61.6 210.2 62.4 208.8 63.5 208.6C63.8 208.5 64.5 209.3 64.8 209.8C65.5 211.4 66 213 66.7 214.5C66.8 214.8 67.1 215 67.5 215.2C68 215.5 68.6 215.3 68.7 214.7C68.8 214.3 68.9 214 68.8 213.7C68 211.7 67.1 209.8 66.1 207.9C65.6 207 65.4 206.6 65.7 206.1C66.2 205.1 67.3 205.3 67.5 206C67.6 206.4 67.8 206.8 67.9 207.2C68.4 208.6 68.9 210.1 69.6 211.5C69.7 211.7 69.9 211.8 70.2 211.9C70.6 212.1 71 211.9 71.2 211.5C71.3 211.3 71.4 211 71.5 210.8C71.6 210.5 71.3 210 71.2 209.7C70.5 207.8 69.7 206 69.1 204C68.9 203.4 68.8 202.5 69.1 202.1C71.7 198.7 74.3 195.3 77 192C77.3 191.6 78.4 191.4 78.9 191.5C83.8 193.3 88.6 195.2 93.5 197.1C93.8 197.2 94.1 197.8 94 198C93.1 200.5 93.7 203 94.1 205.5C94.2 206.4 94.5 207.4 95.7 207.1C96.8 206.8 96.3 205.9 96.2 205.1C95.9 203.2 95.6 201.2 95.4 199.3C95.3 198.8 95.2 197.7 96.3 197.9C97.1 198.1 98 198.2 98 199.6C98 201.6 98.2 203.7 98.4 205.7C98.4 205.9 98.6 206.2 98.8 206.4C99.1 206.7 99.6 206.7 99.8 206.3C99.9 206 100.1 205.8 100 205.5C99.9 204.2 99.5 202.8 99.4 201.5V200.5C99.5 199.9 100 199.8 100.4 200.3C100.7 200.6 101 200.8 101.2 201.1C101.4 201.3 101.4 201.8 101.5 202.1C101.9 203.3 102.2 204.5 102.6 205.7C102.8 206.4 103.1 207.3 104.1 206.9C104.4 206.8 104.5 205.7 104.4 205.1C104.2 204.1 103.7 203.2 103.4 202.3C102.8 200.7 103.1 199.8 104.8 199.2C105.4 199 106.2 198.9 106.9 198.8C108.2 198.7 109.5 198.6 110.8 198.4C111.2 198.3 111.7 197.9 111.7 197.6C111.7 197.1 111.2 196.7 110.9 196.5Z" fill="#B2A17A"/>
<path d="M183.1 1.5C183 1.9 182.4 2.1 182.1 2.5C182 2.6 182 2.8 181.9 3C181.6 3.6 181.4 4.2 181.1 4.8C180.3 4.9 180.2 5.8 179.7 6.3C179.9 7 179.2 7.1 178.8 7.4C178.7 7.5 178.5 7.6 178.3 7.7C177.3 8.5 176.7 9.7 175.4 10.2C175.2 10.3 175 10.8 174.9 11.1C174.6 11.9 174.3 12.6 173.4 12.7C173 12.8 172.6 13 172.5 13.6C172.5 13.9 172.2 14.1 171.8 14.3C170.8 14.7 170.2 15.8 169.2 16.2C169.5 17 168.6 16.8 168.5 17.2C168.3 17.9 167.6 17.7 167.1 18C166.8 18.2 166.3 18.2 165.9 18.3C165 18.6 164.6 19 164.7 19.9C164.7 20.4 164.5 20.8 164.2 20.9C163.5 21.2 163.2 22.1 162.4 22C162.3 22 162.1 22.4 161.9 22.7H162.5C162.4 23.1 162.3 23.7 162.1 23.8C161.4 24.1 161.2 24.7 160.8 25.2C160.5 25.6 160.7 26.3 159.9 26.3C159.7 26.8 159.7 27.3 159.2 27.7C158.8 28.1 158.7 28.6 158.1 28.8C157.9 28.9 157.8 29.4 157.6 29.7C158.2 29.9 157.8 30.3 157.7 30.6C157.5 31.5 157.8 32.1 158.4 32.6C158.6 32.8 158.7 33 158.9 33.2C159.3 33.1 159.6 32.9 160 33C160.4 33.1 160.7 32.9 161.1 32.7C161.7 32.4 161.7 32.4 162.5 32.9L162.7 33.1C163.4 33 164.2 33 164.7 32.6C165.2 32.3 165.6 32.3 166.1 32.1L167.3 33C167.7 32.9 168.1 33 168.4 32.8C168.8 32.5 169.2 32.1 169.6 31.7C170.4 30.9 171.3 30 172.4 29.8C173.4 29.6 174 28.9 174.7 28.3C175.6 27.5 176.4 26.8 177.7 26.7C178.3 26.6 178.9 26.5 179.3 26.4C179.8 26 180.2 25.6 180.6 25.3C181.7 24.6 182.8 23.9 183.5 22.8C184.3 21.6 185.3 20.6 186.2 19.5L186.4 19.3C187 19.1 187.2 18.8 187.2 18.2C187.2 18 187.4 17.6 187.5 17.6C188.1 17.4 188.5 16.7 189 16.8C189.5 17.1 189.7 17.4 189.9 17.4C191.5 17.2 192.6 16.2 193.2 14.7C193.6 13.7 194 12.6 194.5 11.7C195.1 10.6 195.6 9.6 196.1 8.4C196.4 7.6 196.6 6.8 197.3 6.2C197.4 6.1 197.4 5.8 197.5 5.7C197.6 5.5 197.7 5.1 197.8 5.1C198.4 5 198.6 4.6 198.8 4.2C199.3 3.3 200.1 2.8 201 2.3C201.3 2.1 201.7 2 202 1.8C202.7 1.5 203.3 0.9 203.4 0.3C203.4 0.2 203.5 0.1 203.5 0H183.8L183.6 0.2C183.4 0.6 183.2 0.9 183.1 1.5Z" fill="#B2A17A"/>
<path d="M205.1 397.3C205.2 396.8 205.7 396.3 206 395.8C206.3 395.5 206.7 395.3 207 395C208.3 393.6 208.9 391.9 209.6 390.3C210.3 388.5 210.9 386.6 212 384.9C212.2 384.7 212.2 384.4 212.3 384.1C212.9 383 212.7 381.8 212.8 380.6C213 379.5 212.6 378.7 211.7 378.2C211.3 378 211.1 377.6 211.2 377.2C211.2 376.7 211.4 376.3 211.5 375.8C211.7 374.8 212 373.8 212.3 372.8C212.6 371.3 213.1 366.6 211.7 365.7C210.7 368.4 211.7 371.7 209.4 374C208.7 373.9 208 373.9 207.4 374.3C206.6 373.9 206.4 374.7 205.8 374.9C205.4 375.1 205.2 375.4 204.8 375.7C203.9 376.4 203 377 202.1 377.7C200.6 378.9 200.7 378.7 200.9 380.2C200.9 380.3 200.9 380.4 201 380.5C200.1 381.3 199.8 382.6 198.7 383.2C197.6 384.7 196.6 386.2 195.5 387.7C195.4 387.9 195.4 388.4 195.3 388.4C194.8 388.5 194.7 388.9 194.4 389.2C193.9 389.8 193.5 390.4 192.6 390.7C191.7 391 191.6 391.3 191.5 392.2C191.4 392.9 191.6 393.7 190.6 393.9C190.4 394 190.2 394.3 190.2 394.5C190.3 395.6 189.4 395.6 188.8 395.8C187.2 396.4 186.1 397.3 185.1 398.8C184.9 399.1 184.6 399.3 184.4 399.5C184.3 399.6 184.2 399.7 184 399.8H203.7C203.9 399.3 204.2 399 204.4 398.5C204.5 398.2 205 397.9 205.1 397.3Z" fill="#B2A17A"/>
<path d="M8.7 331.1C10.2 330.7 11 331.7 12.1 332.4C13.1 333.1 15 333.5 15.5 334.7C15.8 335.5 7.1 342.3 6.1 343C4.3 344.4 2 345.5 0.9 347.6C0.2 348.8 1 351.6 1.2 352.8C1.5 354.7 1.9 356.9 3.2 358.4C3.8 358.5 4.4 358.4 4.9 358.1C7.1 356.6 12.8 354.4 12.9 351.3C13.1 346.4 15.2 342.1 17.3 337.8C17.7 336.9 18.2 335.9 18.8 335.2C18.7 335.3 19.2 338.2 19.2 338.6C19.2 339.8 19.1 341 19 342.2C18.8 344.4 18.6 346.6 18.1 348.7C17.7 350.4 17.3 351.7 18 353.4C18.8 355.4 19.7 357.2 20.2 359.3C20.6 361.1 20.6 365.5 23.7 364.6C25.4 364.1 27.1 360.3 28 358.9C31.2 354 29.4 349.7 27.9 344.6C27 341.6 25 338.2 24.8 335.1C24.7 334 24.6 334.3 25.5 333.5C26.1 333 27.1 332.5 27.9 332.2C29.3 331.6 31.2 331.1 31.6 333.1C32.3 337 34.2 341 35.5 344.8C35.8 345.7 36.2 346.6 36.4 347.5C37.2 350.6 41.4 351.7 43.9 353C45.6 353.8 47.9 355.9 49.1 353.4C50.3 350.9 48.7 346.2 48.1 343.7C47.8 342.6 47.2 341.8 46.6 340.8C45.5 338.7 42.6 336.7 41 335C39.1 333 37.1 330.9 34.5 329.7C34.3 329.6 34.2 329.3 33.9 329.1C34.2 328.9 34.5 328.7 34.7 328.5C36.7 326.6 37.1 326.6 38.5 328.1C38.6 328.2 38.7 328.1 38.8 328.2C41.6 330.1 44.5 331.9 46.8 334.4C48.3 336 49.5 337.8 50.6 339.6C51.4 340.9 52.4 343.6 54 344C55.9 344.5 60.7 345.5 62.1 343.8C63.1 342.6 62.6 340.3 62.5 338.9C62.3 336.7 62.6 333 60.3 331.8C54.6 329.1 47.9 327.9 42.1 325.7L39.7 324.8C40.1 323.7 40.7 322.9 41.5 322.2C42.1 322.2 42.6 322.2 43 322.3C46.6 322.7 50.3 323.1 53.9 324C57.1 324.7 59.9 326.3 63 327C64.7 327.4 68.3 323.7 69.8 322.9C71.8 321.8 70.7 320.2 69.5 318.9C67.9 317.3 66.3 315.5 64.8 313.8C63.9 312.7 63 312.4 61.5 312.9C55.8 315 49.8 316.6 44.2 318.8C43.8 319 43.2 319.2 42.7 318.6C43.3 316.8 43 315.1 42.7 313.3C42.5 312 42.6 312.1 44 311.4C46.9 310.1 49.7 308.8 52.7 307.8C55 307 59 307.2 60.9 305.7C61.3 305.4 61.7 305.2 62.1 305C62.5 303.4 64.2 298.6 63.3 297.1C63.3 297 63.2 296.9 63.2 296.9C63.1 296.9 63 297 62.9 296.9C61.5 295.1 55.6 293.3 54 295.6C52.8 297.3 50.9 298.7 49.6 300.3C47.1 303.2 44.7 308.2 40.8 309.3C39.6 309.6 37.4 307.9 36.7 307.2C35.9 306.3 35.6 306.9 36.4 305.5C38.2 302.4 40.9 299.2 43.2 296.5C45.3 294 45 291.7 45 288.7C45 286.9 45.9 282.6 43.6 281.8C43.4 281.7 43.3 281.7 43.1 281.6C42.7 281.5 39.2 283.8 38.7 284.2C37.3 285.1 36.1 286.3 35.7 288C36.7 290.8 35.3 294.5 34.4 297.2C33.6 299.9 32.8 303.1 31.6 305.6C30.7 307.5 28.9 308.2 28.7 305.7C28.5 303 29.4 300.3 29.8 297.6C30.2 294.1 30.7 290.5 31.2 287C31.3 286.4 31.2 285.8 30.9 285.4C29.1 282.5 27.5 279.4 24.3 277.7C23.9 277.5 22.6 277.5 22.4 277.8C20.8 279.9 18.3 283 18.7 285.8C19 288 20.4 290.4 21.2 292.6C22.9 297.1 24.4 301.7 24.9 306.5C25 307.3 24.9 308 24.7 308.7C23.6 309.5 22.1 309.7 21 310.6C20.9 310.7 20.8 310.7 20.8 310.7C20.5 310.6 20.2 310.7 20.1 310.2C19.7 306.5 19.5 302.7 19.2 299C19 296.7 18.1 293.9 18.7 291.7C19.2 289.6 16.1 288 14.7 286.8C13 285.4 9 281.3 7.5 284.5C6.3 287 7.2 290.3 7.1 293C7.1 294.2 7.1 295.3 7.8 296.4C11 300.9 14 305.8 16.7 310.6C17.1 311.3 17.5 312.1 17 313C16.3 313.4 15.6 313.9 14.9 314.3C13.9 314.9 7.8 308.6 7.1 307.8C5.1 305.6 3.3 303.2 1 301.2C0.7 300.9 0.3 300.6 0 300.4V313C2.7 313.8 5.4 314.7 8 315.6C8.8 315.9 9.7 316.1 10.6 316.5C12.1 317.2 11.1 319 9.7 319C8.1 318.9 6.6 318.9 5 318.8C3.4 318.7 1.7 318.4 0.1 318.1V323.5C2 323 3.9 322.5 5.8 321.7C6.5 321.4 7.3 321.1 8.1 321.6C7.6 323.7 6.9 325.3 7.7 327.4C8.2 328.9 4.1 329.6 3.1 329.9C2.1 330.1 1.1 330.5 0.1 330.8V337.1C0.9 336.4 1.7 335.9 2.2 335.5C3.8 334.1 6.5 331.7 8.7 331.1ZM13.5 324.7C14.2 323.2 15.4 322.1 16.4 320.8C16.9 320.2 17.6 319.7 18.2 319.3C19.6 318.4 21 317.6 22.4 316.7C23.3 316.1 24.3 315.6 25.2 315C26.4 314.1 27.8 313.8 29.1 313C29.5 312.7 30.1 312.7 30.6 312.4C31.1 312.1 31.7 312.2 32.2 312C32.7 311.8 33.2 311.9 33.7 311.8C34.8 311.6 35.8 312 36.9 312.3C37.2 312.4 37.5 312.8 37.8 313C38.9 314.2 38.8 315.7 38.7 317.1C38.5 319.2 37.3 320.7 35.9 322.1C34.7 323.3 33.5 324.5 31.9 325.2C30.7 325.8 29.8 326.8 28.7 327.5C28.1 327.9 27.3 327.9 26.7 328.3C26.1 328.7 25.4 328.8 24.7 328.9C24.1 329.1 23.5 329.2 22.8 329.3C21.7 329.4 20.6 329.1 19.5 329C18.5 328.9 17.6 328.5 16.7 328.3C15.5 328 14.5 327.3 13.6 326.5C13.3 326.4 13.3 325.1 13.5 324.7Z" fill="#B2A17A"/>
<path d="M392.6 333C391.1 333.3 389.7 334 388.3 334.5C386.7 335 380.9 341.8 383.3 343.2C385.2 344.3 389.6 344.3 391.8 343.9C393.6 343.6 395.2 342.2 396.5 341C396.6 339.8 398.4 338.2 399.9 337V330.7C397.6 331.6 395.1 332.6 392.6 333Z" fill="#B2A17A"/>
<path d="M394.6 299.1C392.5 299.2 389.8 299.2 387.9 300.1C387.2 300.4 386.6 301.2 386.9 301.8C387.9 303.8 388.6 306.1 389.7 308.1C389.8 308.2 389.9 308.3 389.9 308.5C390.2 309.3 390.9 310.1 391.6 310.3C394.3 311.3 397.1 312.2 399.9 313.1V300.4C399.4 300 398.9 299.8 398.4 299.6C397.4 299.1 396.2 299 394.6 299.1Z" fill="#B2A17A"/>
<path d="M391.1 316C390.6 315.9 390.1 315.8 389.7 315.9C386.6 316.6 383.6 319.5 380.2 318.9C379.5 318.8 378.9 319.6 379.1 320.3C380 323.1 385.8 326.6 388.6 325.9C392.4 325 396.3 324.4 400.1 323.4V318C398.6 317.7 397.1 317.4 395.6 317C394 316.7 392.6 316.3 391.1 316Z" fill="#B2A17A"/>
<path d="M17.1 196.9C29.1 199.3 25.3 175.3 24.3 168.7C23.7 164.8 23 157.1 18.9 155.1C13.8 152.6 6.00001 155.5 1.10001 157.2C0.800006 157.3 0.500006 157.4 0.100006 157.5V165.7C2.10001 165.2 3.90001 164.6 4.80001 164.5C9.90001 163.7 11.7 161.3 14.6 167.1C17.1 172.1 17.8 178.9 14.1 183.6C10.7 187.9 4.80001 186.9 0.100006 185.6V194.6H0.300006C6.10001 195.1 11.2 195.7 17.1 196.9Z" fill="#B2A17A"/>
<path d="M1.40001 176.2C5.40001 175.9 7.90001 185.4 11.2 178.9C13.8 173.7 6.60001 170.6 2.50001 170.5C1.60001 170.5 0.800006 170.5 0.100006 170.6V176.6C0.400006 176.4 0.900006 176.3 1.40001 176.2Z" fill="#B2A17A"/>
<path d="M390.9 163.7C391.6 167.2 396.2 166.5 400 165.6V157.4C396.5 158.4 390.1 159.7 390.9 163.7Z" fill="#B2A17A"/>
<path d="M399.5 185.3C395.6 184.1 396.8 178.2 400 176.6V170.6C390.5 171.4 388.7 178.3 390.3 188.1C391 192.5 396.2 194 400 194.4V185.4C399.8 185.4 399.7 185.4 399.5 185.3Z" fill="#B2A17A"/>
<path d="M328.4 261.5C324.3 260.1 321.5 262.3 318.1 264.3C316.1 265.5 314 267.6 311.8 268.4C311 268.7 311.2 268.7 310.5 268.2C310 267.8 309.5 267.2 309.1 266.7C308.4 265.8 307.7 264.5 309 263.8C311.7 262.5 314.2 260.4 316.7 258.8L318.5 257.6C320.6 256.5 320.6 253.2 321 251.1C321.3 249.7 322.3 247.7 320.3 247.2C318.3 246.8 315.2 248.8 313.5 249.8C312.8 250.2 312.3 250.9 311.7 251.4C310.4 252.6 309.5 255 308.5 256.6C307.4 258.4 306.3 260.2 305.9 262.3C305.9 262.5 305.7 262.6 305.6 262.8C305.4 262.6 305.2 262.4 305 262.3C303.3 261.2 303.2 260.9 304 259.6V259.4C304.9 257 305.6 254.6 307 252.5C307.9 251.1 309 249.9 310.1 248.7C310.9 247.9 312.7 246.7 312.6 245.4C312.6 244 312.4 240.3 310.9 239.6C309.8 239.1 308.3 239.9 307.3 240.2C305.8 240.8 303 241.2 302.6 243.1C301.7 247.7 302.1 252.8 301.6 257.4C301.5 258 301.5 258.6 301.4 259.3C300.5 259.2 299.8 258.9 299.2 258.5C299.1 258.1 299 257.7 299 257.4C298.6 254.7 298.2 252 298.1 249.2C298 246.8 298.6 244.4 298.6 242C298.6 240.7 295.2 238.8 294.3 237.8C293.1 236.5 292.2 237.6 291.5 238.8C290.6 240.3 289.6 241.8 288.7 243.1C288.1 244 288 244.7 288.7 245.6C291.3 249.4 293.6 253.4 296.3 257C296.5 257.3 296.8 257.7 296.4 258.1C295 258 293.8 258.5 292.6 259.1C291.7 259.5 291.7 259.4 291 258.5C289.5 256.7 288 254.8 286.8 252.9C285.8 251.4 285.1 248.4 283.7 247.3C283.4 247.1 283.2 246.8 282.9 246.6C281.6 246.6 277.8 246.3 277 247.2L276.9 247.3C276.9 247.4 277 247.5 277 247.5C275.9 248.8 275.8 253.5 277.7 254.2C279.1 254.7 280.5 255.9 281.9 256.5C284.4 257.8 288.6 258.5 290.1 261.2C290.6 262 289.7 263.9 289.3 264.6C288.8 265.4 289.3 265.4 288.1 265.1C285.6 264.4 282.7 263.1 280.3 261.9C278.1 260.8 276.5 261.5 274.3 262.1C273 262.4 269.7 262.6 269.6 264.4V264.8C269.6 265.1 271.9 267.2 272.3 267.5C273.2 268.3 274.3 269 275.6 268.9C277.5 267.6 280.4 268 282.5 268.1C284.6 268.2 287 268.1 289.1 268.6C290.6 268.9 291.5 270.1 289.7 270.7C287.8 271.4 285.6 271.2 283.6 271.5C280.9 271.8 278.3 272.2 275.6 272.5C275.1 272.6 274.7 272.7 274.5 273C272.7 274.9 270.8 276.6 270.2 279.2C270.1 279.5 270.4 280.5 270.6 280.6C272.4 281.4 275.1 282.6 277.1 281.7C278.6 281 280.1 279.6 281.5 278.6C284.4 276.5 287.5 274.6 290.9 273.3C291.5 273.1 292 273 292.5 273C293.3 273.7 293.7 274.7 294.6 275.3C294.7 275.3 294.7 275.4 294.7 275.5C294.7 275.7 294.8 275.9 294.5 276.1C291.9 277.1 289.2 277.9 286.6 278.9C285 279.5 283.1 280.6 281.4 280.7C279.7 280.7 279.2 283.3 278.6 284.5C277.9 286 275.7 289.6 278.3 290.2C280.4 290.6 282.6 289.3 284.5 288.9C285.4 288.7 286.2 288.5 286.8 287.7C289.4 284.5 292.4 281.4 295.4 278.6C295.8 278.2 296.3 277.7 297.1 277.9L298.4 279.2C299 279.8 295.6 285.4 295.2 286.1C294 288 292.6 289.7 291.6 291.7C291.2 292.5 291 293.2 290.9 293.8C290.8 294.7 291 295.5 291.3 296.7C291.8 298.2 292.3 300.1 293.3 301.4C293.7 301.8 294.4 302.2 294.7 301.8C296 300.7 297.5 299.8 298.7 298.6C298.8 298.5 298.8 298.4 298.9 298.4C299.5 298 299.8 297.4 299.9 296.8C300.3 292.5 300.3 288.2 300.7 284C300.8 283.3 300.7 282.7 300.8 282C301 280.8 302.5 281.1 302.7 282.2C303 283.3 303.2 284.5 303.4 285.6C303.8 287.9 304 290.4 304 292.7C304 293.8 304 295 304.1 296.1C304.1 296.5 304.2 296.8 304.3 297.1C305.4 299.2 308.1 300.8 308.3 303.4C308.4 304 309.1 304.2 309.5 303.9C311.4 302.7 312.8 297.9 311.8 296C309.7 292.1 308.1 288 305.5 284.3C305.2 283.9 304.8 283.3 305 282.6C306.6 282.6 307.9 282.8 309.3 281.8C310.3 281.1 311.6 284 312 284.7C313.3 287.1 315.1 289.2 316.2 291.6C316.7 292.7 317.5 293.5 318.1 294.4C318.8 295.5 324.8 298.4 325.4 296.4C325.9 294.8 325 291.6 324.3 290.1C323.8 288.9 322.4 288 321.3 287.2C319.9 287.4 317.2 285 316.2 284.3C314.8 283.3 312.6 281.8 311.7 280.3C311.1 279.3 311.7 278.5 312 277.6C312.3 276.7 312.2 275.3 313.1 274.7C313.6 274.3 320.2 279.4 320.9 279.9C322.3 280.9 323.5 282.4 325.2 282.8C326.2 283.1 328.1 282 328.9 281.6C330.2 281 331.7 280.3 332.6 279.1C332.5 278.6 332.4 278.2 332.1 277.9C330.6 276.6 327.9 272.9 325.7 273.4C322.1 274.2 318.6 273.5 315.1 272.8C314.4 272.7 313.6 272.5 312.9 272.2C313 272.2 315 271.3 315.3 271.3C316.2 271.1 317.1 270.9 317.9 270.8C319.5 270.5 321.1 270.3 322.8 270.2C324.1 270.2 325.1 270.2 326.2 269.4C327.5 268.5 328.6 267.4 330.1 266.7C331.3 266.1 334.5 265.2 333.3 263.2C332.7 262.4 329.7 261.9 328.4 261.5ZM307.8 277.9C307.7 278.1 306.7 278.4 306.4 278.4C305.2 278.1 304.1 277.6 303 277.1C302.5 276.9 302 276.5 301.6 276.1C300.7 275.3 299.8 274.4 298.9 273.5C298.3 272.9 297.7 272.3 297.1 271.8C296.3 271.1 295.7 270.1 295 269.4C294.7 269.1 294.6 268.7 294.3 268.5C294 268.2 293.9 267.8 293.7 267.4C293.5 267.1 293.4 266.7 293.2 266.3C292.8 265.5 293 264.7 292.9 263.9C292.9 263.6 293.1 263.4 293.3 263.1C294 262.1 295 261.9 296.1 261.7C297.6 261.5 299 262.1 300.3 262.8C301.4 263.4 302.5 264.1 303.3 265.1C303.9 265.9 304.8 266.3 305.6 267C306 267.4 306.1 267.9 306.6 268.3C307 268.6 307.2 269.2 307.4 269.6C307.6 270 307.9 270.4 308.1 270.9C308.4 271.7 308.4 272.5 308.5 273.3C308.6 274 308.5 274.7 308.6 275.5C308.6 276.3 308.2 277.1 307.8 277.9Z" fill="#B2A17A"/>
<path d="M291.7 169.4C291.6 168.7 291.4 168 290.9 167.5C291.1 166.7 290.2 166.6 289.9 166.1C289.7 165.8 289.2 165.6 288.9 165.3C288 164.6 287.2 163.8 286.3 163.1C284.8 161.9 285 161.9 283.6 162.5C283.5 162.5 283.4 162.6 283.3 162.6C282.3 162 281 162 280.2 160.9C278.5 160.2 276.8 159.5 275.1 158.8C274.9 158.7 274.4 158.8 274.3 158.7C274.1 158.2 273.7 158.2 273.3 158C272.6 157.7 271.9 157.4 271.5 156.6C271 155.8 270.7 155.8 269.8 155.9C269.1 156 268.4 156.3 267.9 155.4C267.8 155.2 267.4 155.1 267.2 155.1C266.2 155.4 265.9 154.6 265.6 154C264.7 152.6 263.5 151.7 261.8 151.1C261.5 151 261.2 150.8 260.9 150.6C260.7 150.5 260.5 150.3 260.3 150.2C259.9 150 259.4 149.9 258.9 149.9C258.5 149.9 258.1 149.4 257.7 149.1C257.6 149 257.3 149.1 257.1 149.1C256.4 149 255.8 148.9 255.1 148.7C254.8 147.9 253.9 148 253.4 147.6C252.7 147.9 252.5 147.3 252.1 147C252 146.9 251.9 146.7 251.7 146.6C250.7 145.9 249.3 145.5 248.6 144.3C248.5 144.1 248 144.1 247.6 144C246.8 143.9 246.1 143.8 245.7 142.9C245.5 142.5 245.3 142.1 244.6 142.3C244.4 142.3 244 142.1 243.8 141.8C243.2 140.9 242 140.6 241.3 139.7C240.6 140.2 240.6 139.2 240.1 139.2C239.4 139.2 239.4 138.4 239 138.1C238.7 137.9 238.7 137.4 238.5 137C238.1 136.2 237.5 135.9 236.7 136.2C236.2 136.3 235.8 136.2 235.6 136C235.2 135.4 234.2 135.3 234.1 134.4C234.1 134.3 233.7 134.2 233.3 134.1C233.4 134.4 233.4 134.5 233.5 134.7C233.1 134.7 232.5 134.8 232.3 134.6C231.9 134 231.2 133.9 230.6 133.7C230.1 133.5 229.5 133.9 229.3 133.1C228.8 133 228.2 133.1 227.7 132.8C227.3 132.5 226.7 132.5 226.4 131.9C226.3 131.7 225.8 131.7 225.4 131.6C225.3 132.2 224.8 131.9 224.6 131.9C223.7 131.9 223.2 132.4 222.8 133.1C222.7 133.3 222.5 133.5 222.3 133.7C222.5 134 222.7 134.3 222.8 134.7C222.8 135.2 223.1 135.4 223.3 135.7C223.8 136.2 223.7 136.2 223.4 137.1C223.4 137.2 223.3 137.3 223.3 137.4C223.6 138 223.8 138.8 224.2 139.2C224.6 139.6 224.7 140 225 140.4C224.8 140.9 224.6 141.3 224.4 141.8C224.5 142.2 224.6 142.6 224.8 142.8C225.2 143.2 225.7 143.4 226.1 143.7C227.1 144.3 228.1 144.9 228.6 146C229 147 229.8 147.4 230.5 147.9C231.5 148.6 232.4 149.3 232.8 150.4C233 151 233.3 151.5 233.4 151.9C233.9 152.3 234.4 152.6 234.8 153C235.7 154 236.7 154.8 237.9 155.3C239.2 155.8 240.5 156.6 241.8 157.2C241.9 157.2 242 157.3 242 157.4C242.3 157.9 242.7 158 243.2 157.9C243.4 157.9 243.8 157.9 243.9 158.1C244.2 158.7 245 158.9 245 159.4C244.8 159.9 244.5 160.2 244.6 160.4C245.2 161.9 246.4 162.8 248 163C249.1 163.2 250.2 163.3 251.2 163.6C252.4 163.9 253.5 164.2 254.7 164.4C255.5 164.5 256.4 164.6 257.1 165C257.2 165.1 257.5 165 257.7 165.1C257.9 165.1 258.3 165.1 258.4 165.3C258.6 165.8 259.1 165.9 259.5 166C260.5 166.3 261.2 167 261.8 167.7C262.1 168 262.3 168.3 262.5 168.6C262.9 169.2 263.6 169.6 264.2 169.6C264.9 169.5 265.3 169.9 265.9 170C266.4 170.1 266.8 170.5 267.5 170.5C268.1 170.5 268.6 170.8 269.2 171.1C269.6 171.3 269.9 171.6 270.2 171.8C271.8 172.7 273.6 173 275.4 173.2C277.3 173.5 279.3 173.6 281.2 174.4C281.4 174.5 281.8 174.4 282 174.5C283.2 174.8 284.4 174.3 285.5 174.2C286.6 174.1 287.3 173.6 287.6 172.5C287.7 172 288.1 171.8 288.5 171.8C289 171.7 289.4 171.7 289.9 171.7C290.9 171.7 292 171.8 293 171.8C294.6 171.8 299.2 171.2 299.7 169.6C297.4 169.4 294.4 171.1 291.7 169.4Z" fill="#B2A17A"/>
<path d="M137.2 328.2C130.8 318.8 117.5 337 113.9 342.1C111.8 345 107.1 350.6 108.5 354.6C110.2 359.6 117.2 362.8 121.6 365C124.3 366.3 130.2 370.8 132.6 367.3C135.4 363.2 126 359.3 123.9 357.8C120 355 117.2 355.3 119.2 349.6C120.9 344.6 124.8 339.7 130.4 339.1C135.7 338.5 138.9 343.3 141.2 347.5C143.2 351.3 137 354.8 134 352.3C131.1 349.9 135.8 342 129.4 344.1C124.2 345.8 127 352.6 129.6 355.4C137.1 363.1 143.4 359.9 149.2 351.8C151.7 348.3 149.1 343.9 146.8 341.1C143.3 336.6 140.3 332.8 137.2 328.2Z" fill="#B2A17A"/>
<path d="M334.4 337.5C330.8 336.8 323.9 334.8 320.8 337.7C317 341.3 316.9 349 316.7 353.9C316.6 356.9 314.9 364.2 319.1 364.9C324 365.8 323.7 355.6 324.2 353.1C325.2 348.4 323.7 346 329.7 345.4C334.9 344.9 341.1 346.5 343.9 351.3C346.6 355.9 343.5 360.8 340.7 364.6C338.1 368 332.3 363.8 333.4 360C334.4 356.4 343.6 357.4 339 352.4C335.3 348.4 330.2 353.7 328.8 357.2C324.8 367.2 330.3 371.6 340.1 373.6C344.3 374.4 347.3 370.3 348.9 367.1C351.4 362.1 353.6 357.9 356.5 353.2C362.6 343.4 340.5 338.8 334.4 337.5Z" fill="#B2A17A"/>
<path d="M2.6 75.6C3.2 75.4 3.8 74.9 4 74.4C5.6 70.4 6.9 66.3 8.5 62.4C8.8 61.8 8.9 61.1 9.2 60.5C9.7 59.4 11.1 60.2 11 61.2C10.9 62.4 10.8 63.5 10.7 64.7C10.4 67.1 9.9 69.4 9.2 71.7C8.9 72.8 8.5 73.9 8.3 75C8.2 75.3 8.1 75.7 8.2 76.1C8.7 78.5 10.7 80.8 10.2 83.3C10.1 83.9 10.7 84.3 11.2 84.2C13.4 83.6 16.1 79.4 15.7 77.3C14.8 73 14.5 68.6 13 64.3C12.8 63.8 12.6 63.2 13 62.6C14.6 63 15.7 63.6 17.4 63.1C18.5 62.8 19 65.9 19.1 66.6C19.6 69.3 20.8 71.8 21.1 74.5C21.2 75.7 21.8 76.7 22.1 77.8C22.5 79 27.4 83.6 28.5 81.8C29.4 80.4 29.5 77.1 29.3 75.5C29.1 74.2 28.1 72.9 27.3 71.9C25.9 71.7 24 68.6 23.3 67.6C22.3 66.2 20.6 64.2 20.2 62.5C20 61.4 20.7 60.8 21.3 60C21.8 59.2 22.2 57.9 23.2 57.5C23.8 57.3 28.6 64 29.2 64.8C30.2 66.2 30.9 67.9 32.5 68.9C33.4 69.4 35.5 68.9 36.4 68.8C37.8 68.6 39.5 68.4 40.6 67.5C40.7 67 40.7 66.6 40.4 66.2C39.3 64.5 37.8 60.2 35.5 60C31.9 59.7 28.7 58 25.5 56.3C24.9 56 24.1 55.6 23.6 55.1C23.6 55.1 25.8 54.9 26.2 54.9C27.1 55 28 55.1 28.9 55.2C30.5 55.4 32.2 55.6 33.7 56.1C35 56.5 35.9 56.8 37.2 56.3C38.7 55.8 40.1 55.1 41.7 54.8C43 54.5 46.4 54.7 45.8 52.4C45.5 51.1 42.7 49.8 41.6 49C38 46.4 34.8 47.7 30.9 48.7C28.6 49.3 26 50.6 23.7 50.8C22.8 50.8 23.1 51 22.5 50.2C22.1 49.7 21.8 48.9 21.6 48.4C21.2 47.3 20.9 45.9 22.4 45.7C25.3 45.3 28.4 44 31.3 43.2C32 43 32.7 42.7 33.3 42.6C35.6 42.1 36.6 39 37.6 37.1C38.3 35.9 39.9 34.2 38 33.2C36.2 32.2 32.6 33.3 30.7 33.7C29.9 33.9 29.2 34.4 28.5 34.7C26.9 35.5 25.3 37.5 24 38.7C22.4 40.1 20.8 41.5 19.8 43.4C19.7 43.6 19.5 43.6 19.3 43.8C19.1 43.5 19 43.3 18.9 43.2C17.6 41.7 17.5 41.3 18.7 40.3C18.7 40.3 18.7 40.2 18.8 40.1C20.3 38.1 21.7 35.9 23.7 34.3C24.9 33.3 26.3 32.4 27.7 31.6C28.7 31 30.7 30.4 31.1 29.2C31.5 27.8 32.4 24.2 31.2 23.1C30.3 22.3 28.6 22.6 27.5 22.6C25.7 22.4 23 22 22 23.7C19.8 27.9 18.7 32.8 16.9 37.1C16.7 37.7 16.4 38.3 16.2 38.9C15.4 38.6 14.8 38.1 14.3 37.5C14.3 37.1 14.4 36.7 14.4 36.3C14.8 33.6 15.2 30.9 16 28.2C16.6 25.9 17.9 23.8 18.5 21.5C18.9 20.2 16.2 17.4 15.6 16.3C14.8 14.7 13.6 15.5 12.6 16.4C11.3 17.6 10 18.7 8.7 19.7C7.8 20.4 7.6 21 7.9 22.1C9.3 26.4 10.3 30.9 11.8 35.2C11.9 35.5 12.1 36 11.6 36.3C10.3 35.8 9 35.9 7.6 36.1C6.6 36.2 6.7 36.1 6.2 35.1C5.5 33 4.6 30.9 4 28.6C3.5 26.9 3.7 23.8 2.7 22.4C2.5 22.1 2.4 21.8 2.2 21.5C1.6 21.3 0.9 21 0 20.8V32.2C1.9 33.7 4.2 35.4 4.7 37.6C4.9 38.5 3.6 40.1 3 40.6C2.3 41.2 2.7 41.4 1.7 40.8C1.1 40.4 0.6 40 0 39.6V43.6C0.5 43.8 1.1 44.1 1.6 44.3C3 45.1 3.5 46.4 1.6 46.5C1.1 46.5 0.6 46.5 0 46.4V49.6C0.7 49.5 1.3 49.4 2 49.4C2.6 49.4 3.1 49.4 3.6 49.6C4.2 50.5 4.3 51.6 4.9 52.4C4.9 52.5 5 52.5 5 52.6C5 52.7 5.1 53 4.7 53C3.1 53.1 1.6 53.2 0 53.2V58.2C1.6 57.3 3.3 56.4 4.9 55.6C5.4 55.3 6.1 55 6.7 55.4C7 56 7.3 56.5 7.6 57C8 57.8 3.1 62.2 2.5 62.7C1.7 63.4 0.8 64 0 64.7V76.6C0.8 76.3 1.6 76 2.3 75.6C2.4 75.7 2.5 75.6 2.6 75.6ZM7.2 46.4C7 46.1 7 45.6 6.8 45.3C6.6 44.9 6.7 44.5 6.6 44.1C6.5 43.7 6.5 43.3 6.5 43C6.3 42.2 6.7 41.4 6.9 40.6C7 40.4 7.3 40.2 7.5 40C8.4 39.2 9.5 39.3 10.6 39.5C12.2 39.7 13.3 40.7 14.3 41.8C15.2 42.7 16 43.7 16.5 44.9C16.9 45.8 17.6 46.5 18.1 47.3C18.4 47.8 18.4 48.3 18.7 48.8C19 49.2 19 49.8 19.1 50.3C19.2 50.8 19.3 51.2 19.4 51.7C19.5 52.5 19.2 53.3 19.1 54.1C19 54.8 18.7 55.5 18.5 56.2C18.3 57.1 17.7 57.8 17 58.5C16.8 58.7 15.8 58.7 15.6 58.5C14.5 57.9 13.7 57 12.8 56.2C12.4 55.8 12 55.3 11.7 54.8L9.9 51.5C9.3 50.8 9 50 8.5 49.3C7.9 48.4 7.7 47.3 7.2 46.4Z" fill="#B2A17A"/>
<path d="M397.4 67.1C396.8 67.7 396.4 68.3 396.1 68.9C395.8 69.7 395.7 70.6 395.7 71.8C395.7 73.4 395.6 75.4 396.2 76.9C396.4 77.4 397 77.9 397.5 77.7C398.3 77.3 399.1 77 400 76.7V64.8C399.1 65.5 398.2 66.2 397.4 67.1Z" fill="#B2A17A"/>
<path d="M396.3 20.3C396.2 20.3 396.2 20.4 396.1 20.4V20.6C394.7 21.6 393.2 26 394.8 27.2C396 28.1 397 29.6 398.2 30.7C398.7 31.2 399.4 31.7 400 32.2V20.8C398.6 20.3 396.9 19.9 396.3 20.3Z" fill="#B2A17A"/>
<path d="M390.8 53.6C389.2 53.2 387.9 55.5 387.1 56.5C386 57.7 382.8 60.6 385.2 61.8C387.1 62.8 389.5 62.2 391.6 62.3C392.5 62.4 393.3 62.4 394.2 61.8C396.1 60.5 398.1 59.3 400.2 58.2V53.2C399 53.2 397.7 53.3 396.5 53.4C394.6 53.5 392.5 54.1 390.8 53.6Z" fill="#B2A17A"/>
<path d="M389.3 33.8C388 33.7 384.8 33 384.1 34.7C384.1 34.8 384 35 384 35C383.9 35.3 385.5 38 385.8 38.4C386.4 39.5 387.3 40.4 388.5 40.7C390.7 40 393.3 41.2 395.3 41.9C396.8 42.4 398.4 42.9 399.9 43.5V39.5C398.2 38.2 396.5 36.7 395 35.3C393.4 33.7 391.6 33.9 389.3 33.8Z" fill="#B2A17A"/>
<path d="M387.6 44.1C387.1 44 386.7 44.1 386.4 44.3C384.2 45.6 381.8 46.7 380.5 49C380.3 49.3 380.3 50.3 380.5 50.4C382 51.7 384.2 53.6 386.4 53.4C388.1 53.2 389.9 52.2 391.5 51.7C394.3 50.8 397.1 50 400 49.6V46.4C398.5 46.2 397 45.7 395.5 45.4C392.9 45 390.3 44.6 387.6 44.1Z" fill="#B2A17A"/>
</g>
<defs>
<clipPath id="clip0_1_2">
<rect width="400" height="400" fill="white"/>
</clipPath>
</defs>
</svg>
