<?xml version='1.0' encoding='utf-8'?>
<svg xmlns="http://www.w3.org/2000/svg" enable-background="new 0 0 1695.2583 1686.9504" version="1.1" viewBox="0 0 1695.2583 1686.9504">
				<path d="m659.55 423.66c142.27 119 54.73 397.84-110.81 768.46-140.3-41.757-271.78-68.81-390.08-73.865-124.65-303.08-142.03-538.38 0-672.97 150.73-152.78 343.51-152.54 500.89-21.622z" fill="#CBDFE0"/>
					<path d="m557 1210.1l-12.496-3.7189c-149.8-44.586-276.22-68.549-386.48-73.26l-9.4964-0.4065-3.6159-8.7916c-64.978-157.99-98.998-294.27-101.12-405.04-2.3081-120.61 32.839-216.23 104.46-284.21 78.559-79.553 171.29-121.6 268.18-121.6 87.285 0 174.64 34.292 252.63 99.167 71.289 59.628 92.581 159.08 65.122 304.06-22.081 116.59-75.087 265.21-171.87 481.88l-5.317 11.903zm-388.16-106.23c107.32 5.5875 229.12 28.637 371.63 70.323 161.78-364.02 241.4-628.83 109.55-739.11-72.549-60.351-153.33-92.266-233.58-92.266-88.829 0-174.31 39.049-247.19 112.93l-0.3576 0.3497c-66.344 62.872-97.539 148.65-95.366 262.23 2.0099 105.04 34.074 234.73 95.315 385.55z" fill="#fff"/>
			<ellipse transform="matrix(.995 .0996 -.0996 .995 72.051 -39.037)" cx="426.94" cy="701.99" rx="231.92" ry="265.49" fill="#000508"/>
		<path d="m231.41 655.41c4.0267 129.22 48.696 223.42 163.36 233.56 125.64 11.111 199.07-72.546 226.95-215.31-5.4054 165.65-114.3 263.74-210.25 258.9-134.46-9.411-212.14-113.33-180.07-277.14z" fill="#152EAC"/>
		<ellipse cx="448.77" cy="572.35" rx="61.824" ry="55.02" fill="#fff"/>
				<path d="m1035.7 446.65c-142.27 119-54.73 397.84 110.81 768.46 140.3-41.757 271.78-68.811 390.08-73.865 124.65-303.08 142.03-538.38 0-672.97-150.73-152.78-343.51-152.54-500.89-21.622z" fill="#CBDFE0"/>
					<path d="m1138.3 1233.1l-5.3157-11.903c-96.782-216.68-149.79-365.3-171.87-481.88-27.457-144.98-6.1655-244.44 65.094-304.04 78.017-64.9 165.37-99.192 252.65-99.192 96.893 0 189.62 42.045 268.18 121.6 71.619 67.979 106.76 163.6 104.46 284.21-2.1194 110.77-36.141 247.04-101.12 405.04l-3.616 8.7917-9.499 0.4065c-110.25 4.7112-236.66 28.674-386.47 73.26l-12.497 3.7186zm140.56-867.29c-80.25 0-161.03 31.915-233.61 92.292-131.82 110.26-52.201 375.07 109.58 739.09 142.51-41.686 264.32-64.735 371.63-70.323 61.241-150.83 93.304-280.51 95.315-385.55 2.1721-113.58-29.02-199.36-95.365-262.23l-0.3563-0.3497c-72.883-73.877-158.36-112.93-247.19-112.93z" fill="#fff"/>
			<ellipse transform="matrix(-.995 .0996 -.0996 -.995 2602.5 1320)" cx="1268.3" cy="724.98" rx="231.92" ry="265.49" fill="#000508"/>
		<path d="m1463.8 678.41c-4.0266 129.22-48.696 223.42-163.36 233.56-125.64 11.111-199.07-72.546-226.95-215.31 5.4054 165.65 114.3 263.74 210.25 258.9 134.46-9.411 212.14-113.33 180.07-277.14z" fill="#152EAC"/>
		<ellipse cx="1246.5" cy="595.35" rx="61.824" ry="55.02" fill="#fff"/>
	<ellipse cx="846.95" cy="1563.7" rx="178.38" ry="79.73" fill="#000508"/>
		<path d="m1451 282.35c-15.989 0-58.784-2.221-112.51-22.762-61.391-23.473-149.44-76.478-220.3-195.69-3.8138-6.4149-1.705-14.708 4.7113-18.52 6.4163-3.8178 14.706-1.7024 18.52 4.7112 66.517 111.91 148.41 161.69 205.4 183.75 61.856 23.942 108.71 21.412 109.16 21.38 7.4219-0.4513 13.854 5.1995 14.321 12.638 0.4697 7.4377-5.1573 13.849-12.592 14.333-0.4198 0.0278-2.7371 0.165-6.7119 0.165z" fill="#000508"/>
		<path d="m297.51 211.2c-16.158 0-31.776-0.9911-46.913-2.9706-7.4007-0.9686-12.615-7.7518-11.648-15.152 0.9673-7.4008 7.7518-12.606 15.152-11.648 110.14 14.403 250.32-27.494 428.54-128.1 6.4968-3.6661 14.742-1.3751 18.411 5.1243s1.3751 14.742-5.1243 18.411c-159.59 90.088-290.58 134.33-398.42 134.33z" fill="#000508"/>
</svg>