<?xml version='1.0' encoding='utf-8'?>
<svg xmlns="http://www.w3.org/2000/svg" enable-background="new 0 0 2615.0732 1705.0851" version="1.1" viewBox="0 0 2615.0732 1705.0851">
		<path d="m2431.7 1313.2c-29.49-12.93-51.4-33.3-63.62-63.2-3.54-8.6899-1.3201-18.65 5.23-25.37 46.26-47.56 81.9-108.71 109.53-180.1 1.4099-3.65 4.8499-5.71 8.3599-5.71 2.1201 0 4.27 0.76 6 2.39 86.19 81.18 69.23 180.24-40.74 268.65-4.3599 3.5099-9.75 5.34-15.18 5.34-3.25 1e-4 -6.51-0.6499-9.5801-1.9999z" fill="#fff"/>
		<path d="m2402.8 1351.5c-41.62 63.87-117.04 96.92-194.29 96.92-123.49 0-251.66-84.39-254.08-262.14-0.12-8.36 6.6699-15.19 15.03-15.3 98.86-1.36 179.03-20.98 227.93-71.15 1.2998-1.34 2.9299-1.9401 4.5298-1.9401 3.0601 0 6 2.1901 6.3601 5.7201 5.3301 53.38 20.81 103.54 96.76 134.52 11.42 4.6499 20.66 13.31 26.77 24.01 3.5901 6.28 7.4299 12.28 11.47 18.08 13.92 24.99 34.32 44.8 60.95 59.11 1.36 3.92 1.0299 8.4-1.43 12.17z" fill="#fff"/>
		<path d="m1992.4 869.81c7.29 0 14.61 0.81 21.85 2.46 96.99 22.15 156.12 68.04 178.14 137.23 6.03 18.98 3.3699 39.58-7.0701 56.3-4.9399 2.14-9.48 5.24-13.37 9.2301-38.31 39.31-104.7 59.07-202.96 60.41-2.37 0.03-4.7 0.24-6.97 0.5901l-28.11-1.91c-10.16-3.7101-19.5-9.53-27.29-17.18-74.28-72.93-72.29-147.84 23.73-225.2 17.75-14.3 39.7-21.93 62.05-21.93z" fill="#fff"/>
		<path d="m1962.8 1136.1s-0.37 0.01-1.1599-0.01c0.1-0.02 0.21-0.03 0.3099-0.0499l0.85 0.0599z"/>
		<path d="m2244.1 885.04c16.86-0.92 33.53-1.51 49.63-1.51 85.83 0 155.44 16.69 152.88 88.35 1.48 33.14-2.3601 63.57-9.77 90.85-21.7 49.08-46.8 89.69-76.08 123.09-12.6 10.21-25.34 17.54-37.27 21.72-1.6599-0.8099-3.3301-1.62-5.04-2.3099-56.35-22.99-69.77-54.69-74.81-105.14-0.6699-6.62-2.8298-12.73-6.1299-18.03 4.26-31.85 15.83-65.86 35.88-97.51 6.9602-18.63 1.77-33.29-9.3999-33.3-7.25 0-17.01 6.17-27.61 21.44l-12.62 18.72c-27.77-77.85-95.56-129.58-201.63-153.8-8.46-1.93-17.12-2.98-25.79-3.24-0.73-0.8-1.4199-1.64-2.0599-2.52-119.6-163.29-188.18-351.06-131.22-429.11 23.4-32.07 50.01-48.14 76.58-48.14 37.57 0 75.08 32.13 103.34 96.62 36.5 63.95 67.72 170.19 93.49 273.2 0.6699 2.65 2.8701 3.96 5.0801 3.96 2.25 0 4.5-1.36 5.1399-4.05 49.82-209.66 111.44-363.72 209.25-363.72 14.78 0 30.38 3.51 46.9 10.88 247.8 106.67-165.38 501-165.38 501-3.99 5.17-0.23 12.56 6.1702 12.56 0.1597-1e-4 0.3096-1e-4 0.4698-0.0101z" fill="#fff"/>
		<path d="m2521.6 1015.4c-8.25-7.78-19.04-12.06-30.37-12.06h-0.0098c-3.1602 0-6.2402 0.3501-9.2402 0.97 0.5903-10.77 0.6704-21.65 0.2202-32.62 0.8101-31.52-8.7798-57.86-28.51-78.31-34.96-36.24-95.01-43.92-142.96-45.16 24.74-26.71 56-62.34 86.71-102.52 91.39-119.6 130.95-218.04 117.55-292.58-6.3901-35.58-28.56-84.25-97.85-114.16-20.71-9.21-41.29-13.88-61.18-13.88-32.47 0-62.86 12.15-90.32 36.11-23.16 20.2-44.02 48.4-63.8 86.2-21.51 41.11-41.32 92.67-60.69 158.38-22.5-75.71-44.11-131.08-66.34-170.51-44.87-101.03-103.87-116.18-135.15-116.18-13.57 0-30.44 2.72-48.64 11.92s-37.74 24.89-56.66 50.81c-71.67 98.21 8.1699 297.96 121.54 457.59-17.34 4.91-33.69 13.26-47.87 24.68-56.74 45.71-86.74 94.1-89.18 143.84-2.2598 46.03 18.88 91.25 62.85 134.42 11.5 11.29 25.46 19.94 40.66 25.41-2.3201 5.91-3.5801 12.34-3.4902 19.07 1.26 92.06 33.53 169.37 93.32 223.58 52.37 47.47 122.09 73.62 196.32 73.62 94.18 0 177.95-42.27 224.08-113.06 3.9897-6.13 6.48-13.05 7.48-20.2 0.4199 0.0099 0.8301 0.0699 1.2397 0.0699 13.58 0 26.88-4.6899 37.46-13.19 68.68-55.22 106.25-116.95 108.66-178.52 2.0198-51.56-20.74-101.26-65.83-143.72zm-658.52-612.63c23.4-32.07 50.01-48.14 76.58-48.14 37.57 0 75.08 32.13 103.34 96.62 36.5 63.95 67.72 170.19 93.49 273.2 0.6699 2.65 2.8701 3.96 5.0801 3.96 2.25 0 4.5-1.36 5.1399-4.05 49.82-209.66 111.44-363.72 209.25-363.72 14.78 0 30.38 3.51 46.9 10.88 247.8 106.67-165.38 501-165.38 501-3.99 5.17-0.23 12.56 6.1699 12.56 0.1602 0 0.3101 0 0.47-0.0099 16.86-0.92 33.53-1.51 49.63-1.51 85.83 0 155.44 16.69 152.88 88.35 1.48 33.14-2.3604 63.57-9.77 90.85-21.7 49.08-46.8 89.69-76.08 123.09-12.6 10.21-25.34 17.54-37.27 21.72-1.6602-0.8099-3.3301-1.62-5.04-2.3099-56.35-22.99-69.77-54.69-74.81-105.14-0.6699-6.62-2.8301-12.73-6.1299-18.03 4.26-31.85 15.83-65.86 35.88-97.51 6.96-18.63 1.77-33.29-9.3999-33.3-7.25 0-17.01 6.17-27.61 21.44l-12.62 18.72c-27.77-77.85-95.56-129.58-201.63-153.8-8.46-1.93-17.12-2.98-25.79-3.24-0.7302-0.8-1.4202-1.64-2.0601-2.52-119.6-163.29-188.18-351.06-131.22-429.11zm43.52 714.2c-74.28-72.93-72.29-147.84 23.73-225.2 17.75-14.3 39.7-21.93 62.05-21.93 7.29 0 14.61 0.81 21.85 2.46 96.99 22.15 156.12 68.04 178.14 137.23 6.03 18.98 3.3701 39.58-7.0698 56.3-4.9399 2.14-9.48 5.24-13.37 9.23-38.31 39.31-104.7 59.07-202.96 60.41-2.3701 0.03-4.7 0.24-6.97 0.59l0.8499 0.0601s-0.3699 0.01-1.1599-0.01c0.1001-0.02 0.21-0.03 0.3101-0.05l-28.11-1.9099c-10.16-3.7101-19.5-9.5301-27.29-17.18zm496.2 234.58c-41.62 63.87-117.04 96.92-194.29 96.92-123.49 0-251.66-84.39-254.08-262.14-0.1199-8.36 6.6699-15.19 15.03-15.3 98.86-1.3599 179.03-20.98 227.93-71.15 1.3-1.3401 2.9302-1.9399 4.53-1.9399 3.0601 0 6 2.1899 6.3601 5.72 5.3301 53.38 20.81 103.54 96.76 134.52 11.42 4.6499 20.66 13.31 26.77 24.01 3.5898 6.2799 7.4299 12.28 11.47 18.08 13.92 24.99 34.32 44.8 60.95 59.11 1.3604 3.9199 1.0303 8.3999-1.4296 12.17zm53.69-41.62c-4.3599 3.51-9.75 5.3398-15.18 5.3398-3.25 0-6.5098-0.6499-9.5801-2-29.49-12.93-51.4-33.3-63.62-63.2-3.54-8.6899-1.3201-18.65 5.23-25.37 46.26-47.56 81.9-108.71 109.53-180.1 1.4102-3.65 4.8501-5.71 8.3599-5.71 2.1201 0 4.2705 0.76 6 2.3899 86.19 81.18 69.23 180.24-40.74 268.65z"/>
	<path d="m1645.8 134.96c59.61 72.69 88.97 180.23 69.9 272.9-32.48-148.04-122.14-284.77-281.23-310.91-64.35-10.58-129.12-7.54-187.04 25.36-64.47 40.06-111.01 102.47-142.61 170.8 2.55-170.97 159.37-297.19 325.35-271.93 83.48 12.71 161.09 47.27 215.63 113.78z"/>
	<path d="m1545.7 1059c32.78 184.65 15.16 323.7-52.59 413.98-64.22 85.59-173.37 132-333.66 141.92-12.34 0.75-24.95 1.13-37.49 1.13h-0.03c-185.63 0-397.18-87.43-580.38-239.86-80.87-67.26-143.67-136.4-187.43-198.39 39.78 25.95 84.74 46.22 135.26 61.02 117.98 34.62 244.65 33.91 361.43 33.55 19.07-0.0599 37.88-0.13 56.3 0h8.76 0.04c169.98 1e-4 414.66-23.24 629.79-213.35z" fill="#f00"/>
	<path d="m504.46 134.95c67.96 62 95.86 167.91 76.49 257.02-17.16-77.56-50.16-163.48-118.32-210.06-40.06-27.38-96.33-35.92-139-34.08-161.57 6.98-247.83 153.57-294.31 291.54-18.33-178.07 106.69-361.75 293.43-365.69 65.62-1.38 132.39 16.27 181.71 61.27z"/>
	<path d="m915.95 1272.3h-0.04-8.76c-18.42-0.13-37.23-0.0601-56.3 0-116.78 0.36-243.45 1.0699-361.43-33.55-50.52-14.8-95.48-35.07-135.26-61.02 43.76 61.99 106.56 131.13 187.43 198.39 183.2 152.43 394.75 239.86 580.38 239.86h0.03c12.54 0 25.15-0.3799 37.49-1.1299 160.29-9.9202 269.44-56.33 333.66-141.92 67.75-90.28 85.37-229.33 52.59-413.98-215.13 190.11-459.81 213.35-629.79 213.35z" fill="none"/>
	<path d="m1602.5 981.02l-14.41-63.96-45.74 47c-207.09 212.58-456.68 237.18-626.43 237.18h-0.04-8.37c-18.62-0.0999-37.62-0.0699-56.92 0-11.96 0.03-24.05 0.0901-36.2 0.0901-180.48 0-355.29-5.1196-474.35-116.62-52.25-49.75-107-118.78-132.92-167.04l2.1081 95.674c2.39 108.92 117.65 276.71 286.85 417.47 89.54 74.5 189.19 136.82 288.25 180.26 115.07 50.49 228.65 76.05 337.61 76.05h0.03c13.99 0 28.09-0.42 41.86-1.26 179.84-11.12 309.77-68.39 386.18-170.21 89.5-119.26 106.66-294.13 52.49-534.64zm-109.38 491.95c-64.22 85.59-173.37 132-333.66 141.92-12.34 0.75-24.95 1.1299-37.49 1.1299h-0.03c-185.63 0-397.18-87.43-580.38-239.86-80.87-67.26-143.67-136.4-187.43-198.39 39.78 25.95 84.74 46.22 135.26 61.02 117.98 34.62 244.65 33.91 361.43 33.55 19.07-0.0601 37.88-0.13 56.3 0h8.76 0.04c169.98 0 414.66-23.24 629.79-213.35 32.78 184.65 15.16 323.7-52.59 413.98z"/>
</svg>